<svg width="33" height="28" viewBox="0 0 33 28" fill="none" xmlns="http://www.w3.org/2000/svg">
<g clip-path="url(#clip0_212_270)">
<path d="M0.833984 4.8116H8.31523V7.01197H0.833984V4.8116ZM0.833984 0.725098H8.31523V2.92547H0.833984V0.725098ZM14.2565 8.8666H0.833984V11.067H13.7535C15.168 11.067 18.4685 11.0983 19.6945 13.0787V11.8528C19.0972 9.90385 17.3371 8.8666 14.2565 8.8666ZM14.2876 12.953H0.833984V15.1533H13.7535C16.8969 15.1533 18.8772 15.2791 19.6945 15.7192V14.7447C19.0657 13.2045 16.4254 12.953 14.2879 12.953M14.2566 23.3262H0.833984V21.1258H13.7535C15.168 21.1258 18.4685 21.0945 19.6945 19.1141V20.34C19.0972 22.289 17.337 23.3262 14.2564 23.3262M14.2876 19.2398H0.833984V17.0395H13.7535C16.8969 17.0395 18.8772 16.9137 19.6945 16.4736V17.4481C19.0657 18.9883 16.4254 19.2398 14.2879 19.2398M22.9637 27.1298H32.834V25.7781H23.2465C22.3977 25.7781 20.3861 25.7467 19.6631 24.5836V25.3381C20.0089 26.5011 21.0777 27.1298 22.9637 27.1298ZM22.9322 24.6465H32.8026V23.2948H23.2465C21.329 23.2948 20.1345 23.232 19.663 22.9491V23.5463C20.0401 24.4893 21.6434 24.6465 22.9322 24.6465Z" fill="#010101"/>
</g>
<defs>
<clipPath id="clip0_212_270">
<rect width="32" height="26.5" fill="white" transform="translate(0.833984 0.725098)"/>
</clipPath>
</defs>
</svg>
