<svg width="33" height="46" viewBox="0 0 33 46" fill="none" xmlns="http://www.w3.org/2000/svg">
<g clip-path="url(#clip0_212_216)">
<path d="M16.4796 45.011L3.45681 41.3957L0.554688 8.8457H32.4434L29.5383 41.3907L16.4796 45.011Z" fill="#264DE4"/>
<path d="M27.0521 39.3183L29.5346 11.5071H16.5V42.2437L27.0521 39.3183Z" fill="#2965F1"/>
<path d="M7.20923 23.5794L7.56698 27.5715H16.5006V23.5794H7.20923ZM6.49023 15.4993L6.85311 19.4914H16.5006V15.4993H6.49023ZM16.5006 33.9474L16.4831 33.952L12.0371 32.7515L11.7529 29.5676H7.74536L8.30461 35.8359L16.4822 38.1059L16.5006 38.1009V33.9474Z" fill="#EBEBEB"/>
<path d="M8.06055 0H12.8955V2.022H10.0825V4.044H12.8958V6.06588H8.06055V0ZM13.8627 0H18.6978V1.75825H15.8847V2.10987H18.6978V6.15387H13.8628V4.3075H16.6759V3.95587H13.8625L13.8627 0ZM19.6649 0H24.5V1.75825H21.6869V2.10987H24.5V6.15387H19.6649V4.3075H22.478V3.95587H19.665L19.6649 0Z" fill="black"/>
<path d="M25.7661 23.5794L26.4867 15.4993H16.4865V19.4914H22.1117L21.7485 23.5794H16.4865V27.5715H21.4023L20.9388 32.749L16.4863 33.9508V38.104L24.6705 35.8359L24.7305 35.1614L25.6687 24.6514L25.7661 23.5794Z" fill="white"/>
</g>
<defs>
<clipPath id="clip0_212_216">
<rect width="32" height="45.125" fill="white" transform="translate(0.5)"/>
</clipPath>
</defs>
</svg>
