<svg width="33" height="33" viewBox="0 0 33 33" fill="none" xmlns="http://www.w3.org/2000/svg">
<g clip-path="url(#clip0_352_40)">
<path d="M25 0.621826H8C3.85786 0.621826 0.5 3.97969 0.5 8.12183V25.1218C0.5 29.264 3.85786 32.6218 8 32.6218H25C29.1421 32.6218 32.5 29.264 32.5 25.1218V8.12183C32.5 3.97969 29.1421 0.621826 25 0.621826Z" fill="#242938"/>
<path d="M29 23.489C28.6361 23.6268 28.2343 23.6265 27.8706 23.4882C27.5069 23.3499 27.2065 23.0832 27.0261 22.7384C25.8932 21.0425 24.6422 19.4231 23.4399 17.769L22.9185 17.074C21.4868 18.9923 20.055 20.834 18.7484 22.7454C18.5782 23.0749 18.294 23.3313 17.9488 23.4669C17.6035 23.6024 17.2208 23.6078 16.8719 23.4821L22.2444 16.2748L17.2471 9.76225C17.6068 9.63235 18.0004 9.63056 18.3613 9.75718C18.7222 9.8838 19.0283 10.1311 19.228 10.4573C20.3886 12.1533 21.6745 13.7726 22.9533 15.4894C24.2391 13.7865 25.511 12.1601 26.6995 10.4781C26.8706 10.1539 27.155 9.90399 27.4984 9.77584C27.8419 9.64769 28.2205 9.65028 28.5621 9.78313L26.623 12.3548C25.7542 13.5015 24.8994 14.6553 23.9959 15.7743C23.923 15.8394 23.8647 15.9192 23.8248 16.0085C23.7849 16.0977 23.7643 16.1943 23.7643 16.2921C23.7643 16.3898 23.7849 16.4865 23.8248 16.5757C23.8647 16.6649 23.923 16.7447 23.9959 16.8099C25.657 19.0131 27.3041 21.2233 29 23.489ZM4 16.1844C4.146 15.4894 4.23625 14.7318 4.43788 14.0229C5.64025 9.7485 10.5401 7.96913 13.911 10.6173C15.8849 12.1673 16.3784 14.3635 16.2811 16.8378H5.16075C4.98 21.2581 8.17013 23.927 12.2499 22.5648C12.9117 22.328 13.5041 21.9302 13.9737 21.4072C14.4433 20.8842 14.7752 20.2525 14.9396 19.5691C15.1551 18.8741 15.5026 18.756 16.1629 18.9575C16.0542 19.8036 15.755 20.6141 15.2879 21.328C14.8209 22.0418 14.198 22.6405 13.4663 23.079C12.2572 23.7402 10.87 24.0022 9.50311 23.8274C8.1362 23.6527 6.85955 23.0501 5.85575 22.106C4.86266 20.9894 4.2622 19.5785 4.146 18.0888C4.146 17.8525 4.05562 17.6161 4.007 17.3938C4.0024 16.9906 4.00007 16.5875 4 16.1844ZM5.17462 15.8855H15.2316C15.169 12.6815 13.1465 10.4088 10.4499 10.388C7.44737 10.3463 5.29975 12.5703 5.16762 15.8716L5.17462 15.8855Z" fill="white"/>
</g>
<defs>
<clipPath id="clip0_352_40">
<rect width="32" height="32" fill="white" transform="translate(0.5 0.621826)"/>
</clipPath>
</defs>
</svg>
