<svg width="22" height="33" viewBox="0 0 22 33" fill="none" xmlns="http://www.w3.org/2000/svg">
<g clip-path="url(#clip0_212_264)">
<path d="M5.83333 32.975C8.77733 32.975 11.1667 30.5857 11.1667 27.6417V22.3083H5.83333C2.88933 22.3083 0.5 24.6977 0.5 27.6417C0.5 30.5857 2.88933 32.975 5.83333 32.975Z" fill="#0ACF83"/>
<path d="M0.5 16.9752C0.5 14.0312 2.88933 11.6418 5.83333 11.6418H11.1667V22.3085H5.83333C2.88933 22.3085 0.5 19.9192 0.5 16.9752Z" fill="#A259FF"/>
<path d="M0.5 6.30843C0.5 3.36443 2.88933 0.975098 5.83333 0.975098H11.1667V11.6418H5.83333C2.88933 11.6418 0.5 9.25243 0.5 6.30843Z" fill="#F24E1E"/>
<path d="M11.166 0.975098H16.4993C19.4433 0.975098 21.8327 3.36443 21.8327 6.30843C21.8327 9.25243 19.4433 11.6418 16.4993 11.6418H11.166V0.975098Z" fill="#FF7262"/>
<path d="M21.8327 16.9752C21.8327 19.9192 19.4433 22.3085 16.4993 22.3085C13.5553 22.3085 11.166 19.9192 11.166 16.9752C11.166 14.0312 13.5553 11.6418 16.4993 11.6418C19.4433 11.6418 21.8327 14.0312 21.8327 16.9752Z" fill="#1ABCFE"/>
</g>
<defs>
<clipPath id="clip0_212_264">
<rect width="21.3333" height="32" fill="white" transform="translate(0.5 0.975098)"/>
</clipPath>
</defs>
</svg>
