<svg width="33" height="33" viewBox="0 0 33 33" fill="none" xmlns="http://www.w3.org/2000/svg">
<g clip-path="url(#clip0_212_262)">
<path d="M31.8965 15.5496L17.925 1.57881C17.1209 0.774186 15.8159 0.774186 15.0107 1.57881L12.1095 4.48006L15.7899 8.16044C16.6451 7.87144 17.6259 8.06531 18.3076 8.74706C18.9926 9.43319 19.1851 10.4223 18.8891 11.2803L22.436 14.8273C23.2941 14.5317 24.2843 14.7229 24.9696 15.4094C25.9275 16.3669 25.9275 17.9188 24.9696 18.8769C24.0115 19.8352 22.4596 19.8352 21.501 18.8769C20.7805 18.1557 20.6025 17.0976 20.9673 16.2099L17.6595 12.9022L17.6591 21.6068C17.8989 21.7254 18.1179 21.882 18.3076 22.0706C19.2655 23.0281 19.2655 24.5801 18.3076 25.5389C17.3495 26.4967 15.7969 26.4967 14.8401 25.5389C13.8822 24.5801 13.8822 23.0282 14.8401 22.0707C15.0697 21.841 15.3425 21.6591 15.6427 21.5356V12.7498C15.342 12.6271 15.0691 12.4451 14.8401 12.2147C14.1144 11.4899 13.9399 10.4251 14.3118 9.53394L10.6838 5.90556L1.10375 15.4849C0.29875 16.2903 0.29875 17.5954 1.10375 18.4002L15.0755 32.3712C15.8799 33.1759 17.1846 33.1759 17.99 32.3712L31.8964 18.4651C32.7011 17.6601 32.7012 16.3542 31.8965 15.5496Z" fill="#DE4C36"/>
</g>
<defs>
<clipPath id="clip0_212_262">
<rect width="32" height="32" fill="white" transform="translate(0.5 0.975098)"/>
</clipPath>
</defs>
</svg>
