<svg width="33" height="33" viewBox="0 0 33 33" fill="none" xmlns="http://www.w3.org/2000/svg">
<g clip-path="url(#clip0_344_8)">
<path d="M25.6117 25.0999C25.6117 26.8374 21.5867 28.2374 16.6242 28.2374C11.6617 28.2374 7.63672 26.8249 7.63672 25.0999C7.63672 23.3624 11.6617 21.9624 16.6242 21.9624C21.5867 21.9624 25.6117 23.3624 25.6117 25.0999Z" fill="#9EDCF2"/>
<mask id="mask0_344_8" style="mask-type:luminance" maskUnits="userSpaceOnUse" x="11" y="24" width="11" height="9">
<path d="M12.7625 30.725C12.9625 31.6625 13.45 32.2125 13.9375 32.5375H19.075C19.7 32.1125 20.3375 31.3125 20.3375 29.8125V25.9375C20.3375 25.9375 20.4124 24.975 21.2999 24.6625C21.2999 24.6625 21.8125 24.3 21.2625 24.1C21.2625 24.1 18.825 23.9 18.825 25.9V28.85C18.825 28.85 18.925 29.9375 18.35 30.3875V26.7375C18.35 26.7375 18.3874 25.575 18.9874 25.1375C18.9874 25.1375 19.3875 24.425 18.5125 24.6125C18.5125 24.6125 16.8375 24.85 16.7625 26.8125L16.725 30.5625H16.325L16.2875 26.8125C16.2125 24.8625 14.5375 24.6125 14.5375 24.6125C13.6625 24.4125 14.0625 25.1375 14.0625 25.1375C14.6625 25.575 14.7 26.7375 14.7 26.7375V30.425C14.125 30.0125 14.225 28.85 14.225 28.85V25.9C14.225 23.9 11.7875 24.1 11.7875 24.1C11.225 24.3 11.75 24.6625 11.75 24.6625C12.625 24.9875 12.7124 25.9375 12.7124 25.9375V28.65L12.7625 30.725Z" fill="white"/>
</mask>
<g mask="url(#mask0_344_8)">
<path d="M25.6117 25.1001C25.6117 26.8376 21.5867 28.2376 16.6242 28.2376C11.6617 28.2376 7.63672 26.8251 7.63672 25.1001C7.63672 23.3626 11.6617 21.9626 16.6242 21.9626C21.5867 21.9626 25.6117 23.3626 25.6117 25.1001Z" fill="#7DBCE7"/>
</g>
<path d="M6.36166 15.8625L6.09916 16.7625C6.09916 16.7625 6.03666 17.0875 6.33666 17.15C6.66166 17.1375 6.63666 16.8375 6.61166 16.75L6.36166 15.8625Z" fill="#9EDCF2"/>
<path d="M32.475 12.075L32.5 11.9625C29.8625 11.4375 27.1625 11.425 25.525 11.5C25.7875 10.5375 25.875 9.41245 25.875 8.17495C25.875 6.38745 25.2 4.96245 24.125 3.88745C24.3125 3.27495 24.5625 1.91245 23.875 0.174952C23.875 0.174952 22.65 -0.212548 19.8625 1.64995C18.775 1.37495 17.6125 1.23745 16.45 1.23745C15.175 1.23745 13.8875 1.39995 12.675 1.72495C9.8 -0.237548 8.5375 0.162452 8.5375 0.162452C7.7125 2.22495 8.225 3.76245 8.375 4.13745C7.4 5.18745 6.8125 6.52495 6.8125 8.16245C6.8125 9.39995 6.95 10.5125 7.3 11.475C5.65 11.4125 3.05 11.4375 0.5 11.95L0.525 12.0625C3.075 11.55 5.7 11.5375 7.3375 11.6C7.4125 11.8 7.5 12 7.5875 12.1875C5.9625 12.2375 3.2 12.45 0.55 13.2L0.5875 13.3125C3.2625 12.5625 6.05 12.3625 7.6625 12.3125C8.6375 14.1125 10.5375 15.2875 13.9375 15.65C13.45 15.975 12.9625 16.525 12.7625 17.4625C12.1 17.775 10.025 18.55 8.775 16.4C8.775 16.4 8.075 15.125 6.7375 15.025C6.7375 15.025 5.4375 15 6.65 15.8375C6.65 15.8375 7.5125 16.25 8.1125 17.7875C8.1125 17.7875 8.9 20.4125 12.6625 19.5625V22.25C12.6625 22.25 12.5875 23.2125 11.7 23.525C11.7 23.525 11.175 23.8875 11.7375 24.0875C11.7375 24.0875 14.175 24.2875 14.175 22.2875V19.3375C14.175 19.3375 14.075 18.1625 14.65 17.7625V22.6125C14.65 22.6125 14.6125 23.775 14.0125 24.2125C14.0125 24.2125 13.6125 24.925 14.4875 24.7375C14.4875 24.7375 16.1625 24.5 16.2375 22.5375L16.275 17.625H16.675L16.7125 22.5375C16.7875 24.4875 18.4625 24.7375 18.4625 24.7375C19.3375 24.9375 18.9375 24.2125 18.9375 24.2125C18.3375 23.775 18.3 22.6125 18.3 22.6125V17.8C18.875 18.25 18.775 19.3375 18.775 19.3375V22.2875C18.775 24.2875 21.2125 24.0875 21.2125 24.0875C21.775 23.8875 21.25 23.525 21.25 23.525C20.375 23.2 20.2875 22.25 20.2875 22.25V18.375C20.2875 16.8625 19.65 16.0625 19.025 15.65C22.65 15.2875 24.3875 14.125 25.1875 12.3C26.775 12.3375 29.6375 12.5375 32.3625 13.3125L32.4 13.2C29.6875 12.4375 26.85 12.2375 25.2375 12.1875C25.3125 12 25.375 11.8125 25.4375 11.6125C27.1125 11.55 29.825 11.55 32.475 12.075Z" fill="#010101"/>
<path d="M22.3242 8.08759C23.0992 8.80009 23.5617 9.65009 23.5617 10.5626C23.5617 14.8626 20.3617 14.9751 16.4117 14.9751C12.4617 14.9751 9.26172 14.3751 9.26172 10.5626C9.26172 9.65009 9.71172 8.80009 10.4867 8.10009C11.7742 6.92509 13.9492 7.55009 16.4117 7.55009C18.8742 7.55009 21.0367 6.91259 22.3242 8.08759Z" fill="#F5CCB3"/>
<path d="M14.0375 10.7875C14.0375 11.975 13.375 12.925 12.55 12.925C11.725 12.925 11.0625 11.9625 11.0625 10.7875C11.0625 9.60002 11.725 8.65002 12.55 8.65002C13.375 8.63752 14.0375 9.60002 14.0375 10.7875Z" fill="white"/>
<path d="M13.5629 10.8125C13.5629 11.6 13.1129 12.2375 12.5754 12.2375C12.0254 12.2375 11.5879 11.6 11.5879 10.8125C11.5879 10.025 12.0379 9.38745 12.5754 9.38745C13.1129 9.38745 13.5629 10.025 13.5629 10.8125Z" fill="#AF5C51"/>
<path d="M22.0258 10.7875C22.0258 11.975 21.3633 12.925 20.5383 12.925C19.7133 12.925 19.0508 11.9625 19.0508 10.7875C19.0508 9.60002 19.7133 8.65002 20.5383 8.65002C21.3508 8.63752 22.0258 9.60002 22.0258 10.7875Z" fill="white"/>
<path d="M21.5367 10.8125C21.5367 11.6 21.0867 12.2375 20.5492 12.2375C19.9992 12.2375 19.5617 11.6 19.5617 10.8125C19.5617 10.025 20.0117 9.38745 20.5492 9.38745C21.0992 9.38745 21.5367 10.025 21.5367 10.8125ZM16.8117 12.6875C16.8117 12.8875 16.6492 13.0625 16.4367 13.0625C16.2367 13.0625 16.0617 12.9 16.0617 12.6875C16.0617 12.475 16.2242 12.3125 16.4367 12.3125C16.6367 12.3125 16.8117 12.475 16.8117 12.6875ZM15.5742 13.625C15.5492 13.5625 15.5867 13.5 15.6492 13.475C15.7117 13.45 15.7742 13.4875 15.7992 13.55C15.8992 13.825 16.1492 14 16.4367 14C16.7242 14 16.9742 13.8125 17.0742 13.55C17.0992 13.4875 17.1617 13.45 17.2242 13.475C17.2867 13.5 17.3242 13.5625 17.2992 13.625C17.1742 13.9875 16.8242 14.2375 16.4367 14.2375C16.0492 14.2375 15.6992 13.9875 15.5742 13.625Z" fill="#AF5C51"/>
<path d="M7.31211 15.3249C7.31211 15.4249 7.19961 15.4999 7.04961 15.4999C6.91211 15.4999 6.78711 15.4249 6.78711 15.3249C6.78711 15.2249 6.89961 15.1499 7.04961 15.1499C7.19961 15.1499 7.31211 15.2249 7.31211 15.3249ZM8.03711 15.7249C8.03711 15.8249 7.92461 15.8999 7.77461 15.8999C7.63711 15.8999 7.51211 15.8249 7.51211 15.7249C7.51211 15.6249 7.62461 15.5499 7.77461 15.5499C7.92461 15.5499 8.03711 15.6249 8.03711 15.7249ZM8.47461 16.2499C8.47461 16.3499 8.36211 16.4249 8.21211 16.4249C8.07461 16.4249 7.94961 16.3499 7.94961 16.2499C7.94961 16.1499 8.06211 16.0749 8.21211 16.0749C8.36211 16.0624 8.47461 16.1499 8.47461 16.2499ZM8.87461 16.8499C8.87461 16.9499 8.76211 17.0249 8.61211 17.0249C8.47461 17.0249 8.34961 16.9499 8.34961 16.8499C8.34961 16.7499 8.46211 16.6749 8.61211 16.6749C8.76211 16.6624 8.87461 16.7499 8.87461 16.8499ZM9.31211 17.3999C9.31211 17.4999 9.19961 17.5749 9.04961 17.5749C8.91211 17.5749 8.78711 17.4999 8.78711 17.3999C8.78711 17.2999 8.89961 17.2249 9.04961 17.2249C9.19961 17.2249 9.31211 17.2999 9.31211 17.3999ZM9.91211 17.8874C9.91211 17.9874 9.79961 18.0624 9.64961 18.0624C9.51211 18.0624 9.38711 17.9874 9.38711 17.8874C9.38711 17.7874 9.49961 17.7124 9.64961 17.7124C9.79961 17.6999 9.91211 17.7874 9.91211 17.8874ZM10.7496 18.1999C10.7496 18.2999 10.6371 18.3749 10.4871 18.3749C10.3496 18.3749 10.2246 18.2999 10.2246 18.1999C10.2246 18.0999 10.3371 18.0249 10.4871 18.0249C10.6371 18.0249 10.7496 18.0999 10.7496 18.1999ZM11.5871 18.1999C11.5871 18.2999 11.4746 18.3749 11.3246 18.3749C11.1871 18.3749 11.0621 18.2999 11.0621 18.1999C11.0621 18.0999 11.1746 18.0249 11.3246 18.0249C11.4746 18.0249 11.5871 18.0999 11.5871 18.1999ZM12.4371 18.0624C12.4371 18.1624 12.3246 18.2374 12.1746 18.2374C12.0371 18.2374 11.9121 18.1624 11.9121 18.0624C11.9121 17.9624 12.0246 17.8874 12.1746 17.8874C12.3121 17.8874 12.4371 17.9624 12.4371 18.0624Z" fill="#C4E5D9"/>
</g>
<defs>
<clipPath id="clip0_344_8">
<rect width="32" height="32.4125" fill="white" transform="translate(0.5 0.125)"/>
</clipPath>
</defs>
</svg>
