<svg width="33" height="37" viewBox="0 0 33 37" fill="none" xmlns="http://www.w3.org/2000/svg">
<g clip-path="url(#clip0_212_257)">
<path fill-rule="evenodd" clip-rule="evenodd" d="M19.572 4.37038L26.9653 8.63912C27.1787 8.41328 27.4237 8.21945 27.6925 8.06362C29.2258 7.18213 31.1815 7.7055 32.0722 9.23888C32.9537 10.7723 32.4303 12.7279 30.8969 13.6185C30.6301 13.7722 30.3425 13.8867 30.043 13.9585V22.4991C30.3392 22.5711 30.6236 22.6848 30.8878 22.8369C32.4303 23.7275 32.9537 25.6833 32.063 27.2166C31.1815 28.7499 29.2167 29.2732 27.6833 28.3919C27.3862 28.2214 27.1186 28.0042 26.8908 27.7485L19.5425 31.991C19.6501 32.3168 19.7048 32.6578 19.7044 33.001C19.7044 34.7639 18.2722 36.2055 16.5 36.2055C14.7279 36.2055 13.2957 34.773 13.2957 33.001C13.2957 32.686 13.3409 32.3818 13.4253 32.0944L6.03403 27.8269C5.82293 28.0482 5.58143 28.2385 5.31678 28.3919C3.77428 29.2732 1.81853 28.7499 0.937032 27.2166C0.0556573 25.6833 0.579032 23.7275 2.11228 22.8369C2.37642 22.6848 2.66085 22.571 2.95703 22.499V13.9585C2.65758 13.8867 2.37001 13.7722 2.10316 13.6185C0.569782 12.7371 0.0464073 10.7723 0.927907 9.23888C1.80941 7.7055 3.77416 7.18213 5.30753 8.06362C5.57492 8.21861 5.81866 8.41121 6.03128 8.6355L13.4267 4.36562C13.3395 4.06974 13.2954 3.76284 13.2957 3.45438C13.2957 1.6825 14.7279 0.25 16.5 0.25C18.2722 0.25 19.7044 1.68238 19.7044 3.45438C19.7044 3.77288 19.6582 4.08025 19.572 4.37038ZM18.8018 5.68563L26.2127 9.96437C26.0947 10.3769 26.0608 10.8089 26.1131 11.2348C26.1655 11.6606 26.3029 12.0716 26.5173 12.4432C26.9684 13.228 27.7033 13.7483 28.5189 13.951V22.5023C28.4773 22.5124 28.4359 22.5235 28.3948 22.5352L18.7157 5.77125C18.7449 5.74325 18.7737 5.71462 18.8018 5.68563ZM14.2864 5.77325L4.60741 22.537C4.56556 22.5249 4.52346 22.5136 4.48116 22.5033V13.9511C5.29678 13.7484 6.03166 13.2281 6.48278 12.4434C6.69758 12.071 6.83515 11.6592 6.88727 11.2324C6.9394 10.8057 6.90501 10.3729 6.78616 9.95975L14.1949 5.68225C14.2248 5.71313 14.2553 5.74363 14.2864 5.77325ZM17.3954 6.5325L27.0722 23.2925C26.8505 23.504 26.6605 23.7464 26.508 24.0121C26.3559 24.2763 26.2422 24.5607 26.1703 24.8569H6.83003C6.758 24.5607 6.64419 24.2763 6.49203 24.0121C6.33903 23.7482 6.1494 23.5073 5.92878 23.2966L15.6074 6.53325C15.8976 6.6168 16.1981 6.65905 16.5 6.65875C16.8109 6.65875 17.1113 6.61475 17.3954 6.5325ZM18.8698 30.8423L26.2325 26.5912C26.2105 26.5219 26.1907 26.4517 26.1734 26.381H6.82591C6.81565 26.4226 6.80456 26.4639 6.79266 26.505L14.1914 30.7769C14.4902 30.4662 14.8487 30.2192 15.2455 30.0507C15.6423 29.8823 16.069 29.7958 16.5 29.7966C16.9461 29.7958 17.3875 29.8885 17.7956 30.0686C18.2037 30.2487 18.5697 30.5122 18.8698 30.8423Z" fill="#E535AB"/>
</g>
<defs>
<clipPath id="clip0_212_257">
<rect width="32" height="36" fill="white" transform="translate(0.5 0.25)"/>
</clipPath>
</defs>
</svg>
