<svg width="33" height="46" viewBox="0 0 33 46" fill="none" xmlns="http://www.w3.org/2000/svg">
<g clip-path="url(#clip0_212_210)">
<path d="M32.4434 8.8457L29.5383 41.3907L16.4796 45.011L3.45681 41.3957L0.554688 8.8457H32.4434Z" fill="#E44D26"/>
<path d="M16.5 42.2437L27.0521 39.3183L29.5346 11.5071H16.5V42.2437Z" fill="#F16529"/>
<path d="M10.8531 19.4914H16.5006V15.4993H6.49023L6.58573 16.5703L7.56698 27.5715H16.5006V23.5794H11.218L10.8531 19.4914ZM11.7529 29.5676H7.74536L8.30461 35.8359L16.4822 38.1059L16.5006 38.1009V33.9474L16.4831 33.952L12.0371 32.7515L11.7529 29.5676Z" fill="#EBEBEB"/>
<path d="M3.52344 0H5.55219V2.00437H7.40806V0H9.43694V6.06975H7.40819V4.03725H5.55231V6.06975H3.52356L3.52344 0ZM12.1047 2.01288H10.3189V0H15.9207V2.01288H14.1338V6.06975H12.1051V2.01288H12.1047ZM16.8097 0H18.9251L20.2263 2.13275L21.5263 0H23.6426V6.06975H21.6221V3.06125L20.2263 5.21938H20.1913L18.7947 3.06125V6.06975H16.8097V0ZM24.6522 0H26.6816V4.0635H29.5346V6.06975H24.6521L24.6522 0Z" fill="black"/>
<path d="M16.4865 27.5715H21.4023L20.9388 32.749L16.4863 33.9508V38.104L24.6705 35.8359L24.7305 35.1614L25.6687 24.6514L25.7661 23.5794H16.4865V27.5715ZM16.4865 19.4816V19.4914H26.1293L26.2093 18.5941L26.3913 16.5703L26.4867 15.4993H16.4865V19.4816Z" fill="white"/>
</g>
<defs>
<clipPath id="clip0_212_210">
<rect width="32" height="45.125" fill="white" transform="translate(0.5)"/>
</clipPath>
</defs>
</svg>
