<svg width="32" height="32" viewBox="0 0 32 32" fill="none" xmlns="http://www.w3.org/2000/svg">
<g clip-path="url(#clip0_344_28)">
<path d="M16.0008 31.1864C24.3881 31.1864 31.1873 24.3872 31.1873 16C31.1873 7.61273 24.3881 0.813477 16.0008 0.813477C7.61358 0.813477 0.814453 7.61273 0.814453 16C0.814453 24.3872 7.61358 31.1864 16.0008 31.1864Z" fill="white"/>
<path d="M16 0C7.1635 0 0 7.1635 0 16C0 24.8366 7.1635 32 16 32C24.8366 32 32 24.8366 32 16C32 7.1635 24.8366 0 16 0ZM16 1.62713C23.9379 1.62713 30.3729 8.06213 30.3729 16C30.3729 23.9379 23.9379 30.3729 16 30.3729C8.06213 30.3729 1.62713 23.9379 1.62713 16C1.62713 8.06213 8.06213 1.62713 16 1.62713Z" fill="#4000BF"/>
<path d="M16.1809 4.61035C22.4714 4.61035 27.5708 9.70985 27.5708 16.0002C27.5708 22.2906 22.4714 27.39 16.1808 27.39C9.89039 27.39 4.79102 22.2906 4.79102 16.0002C4.79102 14.463 5.09564 12.9967 5.64777 11.6586C6.45389 12.7565 7.75402 13.4691 9.22039 13.4691C11.6666 13.4691 13.6498 11.486 13.6498 9.03973C13.6498 7.57323 12.9371 6.27323 11.8393 5.4671C13.1774 4.91498 14.6435 4.61035 16.1809 4.61035Z" fill="url(#paint0_linear_344_28)"/>
</g>
<defs>
<linearGradient id="paint0_linear_344_28" x1="1143.78" y1="2282.57" x2="1143.78" y2="4.61035" gradientUnits="userSpaceOnUse">
<stop stop-color="#7400E1"/>
<stop offset="1" stop-color="#4000BF"/>
</linearGradient>
<clipPath id="clip0_344_28">
<rect width="32" height="32" fill="white"/>
</clipPath>
</defs>
</svg>
