<svg width="33" height="33" viewBox="0 0 33 33" fill="none" xmlns="http://www.w3.org/2000/svg">
<g clip-path="url(#clip0_212_222)">
<path d="M0.5 0.5625H32.5V32.5625H0.5V0.5625Z" fill="#F7DF1E"/>
<path d="M8.91419 27.3039L11.3629 25.8219C11.8354 26.6595 12.2652 27.3683 13.2961 27.3683C14.2842 27.3683 14.9073 26.9818 14.9073 25.4783V15.2535H17.9144V25.5208C17.9144 28.6354 16.0887 30.0532 13.4249 30.0532C11.0193 30.0532 9.62294 28.8073 8.91406 27.3037M19.5478 26.9817L21.9963 25.564C22.6409 26.6167 23.4787 27.3899 24.9607 27.3899C26.2068 27.3899 27.0013 26.7669 27.0013 25.9077C27.0013 24.8767 26.1851 24.5114 24.8103 23.9102L24.0587 23.5877C21.8891 22.6643 20.4499 21.5043 20.4499 19.0555C20.4499 16.8 22.1683 15.0815 24.8534 15.0815C26.7652 15.0815 28.1399 15.7475 29.1279 17.4874L26.7864 18.9912C26.2708 18.0675 25.7126 17.7024 24.8533 17.7024C23.9726 17.7024 23.4141 18.2609 23.4141 18.9912C23.4141 19.8933 23.9726 20.2587 25.2613 20.8172L26.0131 21.1393C28.5693 22.2349 30.0084 23.3518 30.0084 25.8648C30.0084 28.5715 27.8819 30.0535 25.0251 30.0535C22.2327 30.0535 20.4283 28.7218 19.5477 26.9818" fill="black"/>
</g>
<defs>
<clipPath id="clip0_212_222">
<rect width="32" height="32" fill="white" transform="translate(0.5 0.5625)"/>
</clipPath>
</defs>
</svg>
