<svg width="16" height="33" viewBox="0 0 16 33" fill="none" xmlns="http://www.w3.org/2000/svg">
<g clip-path="url(#clip0_224_21)">
<path d="M10.7366 3.68684C9.39543 2.09552 8.24045 0.479262 8.0045 0.14364C7.9989 0.13775 7.99215 0.133061 7.98468 0.129857C7.9772 0.126652 7.96915 0.125 7.96102 0.125C7.95289 0.125 7.94484 0.126652 7.93737 0.129857C7.92989 0.133061 7.92315 0.13775 7.91754 0.14364C7.68159 0.47932 6.52662 2.09552 5.18536 3.68684C-6.32689 18.3693 6.99857 28.2779 6.99857 28.2779L7.11031 28.3525C7.20963 29.8816 7.45806 32.0822 7.45806 32.0822H8.45157C8.45157 32.0822 8.69988 29.8941 8.79926 28.3525L8.91105 28.2655C8.92347 28.2779 22.2489 18.3694 10.7366 3.68684ZM7.95478 28.0541C7.95478 28.0541 7.35868 27.5444 7.19722 27.2834V27.2584L7.91754 11.2705C7.91754 11.2208 7.99209 11.2208 7.99209 11.2705L8.71235 27.2584V27.2834C8.55089 27.5444 7.95478 28.0541 7.95478 28.0541" fill="#01EC64"/>
</g>
<defs>
<clipPath id="clip0_224_21">
<rect width="14.9217" height="32" fill="white" transform="translate(0.5 0.125)"/>
</clipPath>
</defs>
</svg>
