<svg width="33" height="33" viewBox="0 0 33 33" fill="none" xmlns="http://www.w3.org/2000/svg">
<g clip-path="url(#clip0_344_4)">
<path d="M17.9877 10.3897C17.5687 10.4072 16.8607 10.5197 16.8607 10.5672C16.8607 10.5869 17.3597 10.8369 17.398 10.8369C17.433 10.8369 18.0122 11.1259 18.141 11.2059C18.309 11.3134 18.4292 11.4109 18.394 11.4109C18.3715 11.4109 17.7767 11.1807 17.5512 11.0839C17.3677 11.0067 16.605 10.7792 16.2337 10.6914C16.0327 10.6444 15.9477 10.6269 15.606 10.5644C15.102 10.4724 14.5092 10.4669 14.2515 10.5517C13.8822 10.6717 13.7992 10.8192 13.7992 11.3632C13.7992 11.6632 13.814 11.7899 13.8792 12.0594C13.9077 12.1767 13.9877 12.4344 14.025 12.5214C14.0357 12.5489 14.0707 12.6339 14.1 12.7089C14.1302 12.7832 14.2212 12.9754 14.3012 13.1327C14.7505 14.0244 15.4232 14.7677 16.3715 15.4217C16.6705 15.6267 17.483 16.0154 17.809 16.1084C17.892 16.1309 17.9195 16.1777 17.852 16.1777C17.777 16.1777 17.0895 15.9882 16.9487 15.9287C16.8952 15.9049 16.8408 15.8831 16.7857 15.8632C16.2965 15.6659 15.6715 15.2597 15.1547 14.7977C14.5886 14.2938 14.1359 13.6754 13.8267 12.9834C13.6285 12.5359 13.4937 12.0147 13.4605 11.5604C13.441 11.3007 13.4205 11.2382 13.353 11.2412C13.3305 11.2412 13.1167 11.2334 12.8812 11.2207C12.2407 11.1932 11.3657 11.2637 10.4995 11.4132C8.84324 11.6952 7.05624 12.3467 5.21724 13.3397C4.91141 13.5053 4.60926 13.6776 4.31099 13.8564C4.27599 13.8769 4.16549 13.9442 4.06499 14.0067C3.96524 14.0692 3.84724 14.1387 3.80424 14.1659C3.70924 14.2217 2.65774 14.9354 2.53174 15.0302C2.48474 15.0644 2.35399 15.1619 2.24374 15.2422C1.74449 15.6112 0.657743 16.4979 0.595243 16.5879C0.564993 16.6329 0.612743 16.6554 0.677243 16.6329C0.710493 16.6199 0.795493 16.6024 0.863743 16.5929C0.933993 16.5819 1.11474 16.5352 1.26499 16.4854C1.41749 16.4374 1.58149 16.3877 1.62849 16.3749C2.00049 16.2879 2.15099 16.2577 2.36849 16.2254C2.46724 16.2129 2.61274 16.1904 2.69474 16.1777C3.71424 16.0282 4.20074 15.9912 4.65474 16.0252C5.64099 16.1052 6.58449 16.2734 7.12449 16.4647C7.52874 16.6102 8.35099 17.0547 8.71249 17.3212C8.92149 17.4787 9.59324 18.1474 9.74174 18.3494C9.85674 18.5097 9.98474 18.6494 10.015 18.6494C10.025 18.6494 10.0375 18.1394 10.0405 17.5184L10.0472 16.3904L11.3677 16.3829C12.4067 16.3779 12.6947 16.3857 12.7125 16.4079C12.7377 16.4404 12.7982 16.5479 12.9965 16.9139C13.185 17.2664 13.2777 17.4364 13.3355 17.5379C13.3655 17.5937 13.435 17.7227 13.4937 17.8252C13.5482 17.9277 13.6507 18.1172 13.7212 18.2469C13.7915 18.3769 13.849 18.4872 13.849 18.4919C13.849 18.5144 13.9525 18.6494 13.9702 18.6494C13.98 18.6494 14.0052 18.6112 14.0227 18.5694C14.0425 18.5244 14.0952 18.4247 14.1382 18.3494C14.1832 18.2744 14.2632 18.1279 14.3187 18.0254C14.3745 17.9229 14.4497 17.7804 14.4897 17.7129C14.6 17.5154 14.7152 17.3017 14.811 17.1269C14.9125 16.9338 15.0171 16.7423 15.1245 16.5524C15.1567 16.4899 15.197 16.4244 15.2095 16.4079C15.23 16.3854 15.5257 16.3777 16.5952 16.3824L17.9527 16.3902L17.9602 18.5944C17.9652 20.3307 17.9722 20.7957 17.9977 20.7957C18.0122 20.7927 18.1127 20.7349 18.2162 20.6627C18.3617 20.5612 18.4242 20.4987 18.4917 20.3834C18.645 20.1217 19.0795 19.7097 19.3705 19.5494C19.7242 19.354 20.1045 19.2114 20.4995 19.1259C20.9007 19.0409 21.019 19.0284 21.9302 18.9959C23.5932 18.9384 23.8392 18.9284 23.852 18.9159C23.8597 18.9092 23.8375 18.8437 23.8042 18.7684C23.7692 18.6962 23.7092 18.5614 23.6665 18.4717C23.5082 18.1299 23.5082 18.0154 23.6742 17.8477C23.7867 17.7302 24.0775 17.6277 24.5775 17.5282C24.6597 17.5107 24.7632 17.4882 24.805 17.4737C24.8482 17.4609 24.9007 17.4512 24.9232 17.4512C24.9867 17.4512 25.4857 17.3289 25.5912 17.2889C25.6637 17.2589 26.0552 17.1739 26.522 17.0839C26.725 17.0439 27.2525 16.9394 27.689 16.8514C27.9652 16.7969 28.2535 16.7392 28.3285 16.7244C28.4037 16.7099 28.5122 16.6874 28.567 16.6777C28.6225 16.6652 28.6947 16.6494 28.73 16.6444C28.765 16.6377 28.941 16.6024 29.1195 16.5654C29.2533 16.5361 29.3879 16.51 29.523 16.4872C29.649 16.4754 30.5952 16.2479 30.813 16.1777C31.1597 16.0652 31.2622 16.0204 31.481 15.8739C31.7162 15.7139 31.7817 15.6269 32.015 15.1619C32.274 14.6454 32.311 14.5584 32.3842 14.3407C32.4967 13.9942 32.4897 13.8622 32.3462 13.7167C32.2455 13.6172 32.0297 13.5147 31.8725 13.4922C31.7545 13.4774 31.7387 13.4822 31.6812 13.5447C31.646 13.5822 31.6157 13.6269 31.6157 13.6424C31.6157 13.6649 31.5757 13.7744 31.4632 14.0439C31.4525 14.0714 31.4302 14.1387 31.4125 14.1932C31.398 14.2489 31.3675 14.3262 31.35 14.3682C31.3177 14.4382 31.315 14.4257 31.3275 14.2314C31.3402 14.0389 31.3725 13.8769 31.4457 13.6317C31.4585 13.5849 31.476 13.5049 31.483 13.4549L31.4955 13.3649L31.2347 13.2607C30.9635 13.1482 30.7297 13.0507 30.5952 12.9902C30.5492 12.9737 30.437 12.9287 30.3442 12.8934C30.2485 12.8584 30.1332 12.8134 30.0855 12.7909C29.9985 12.7524 29.9105 12.716 29.8217 12.6817C29.6537 12.6162 29.0667 12.4169 28.5667 12.2597C28.233 12.1573 27.8987 12.0565 27.564 11.9572C27.4462 11.9272 27.329 11.8949 27.2125 11.8602C27.1725 11.8494 27.0737 11.8222 26.9985 11.8027C26.557 11.6807 26.442 11.6502 26.2835 11.6052C26.1962 11.58 26.1083 11.5567 26.02 11.5352C25.9722 11.5234 25.8425 11.4932 25.732 11.4657C25.5385 11.4179 24.728 11.2314 24.2885 11.1307L23.975 11.0584C23.9195 11.0459 23.82 11.0262 23.7495 11.0134C23.6812 11.0009 23.5385 10.9734 23.435 10.9509C23.3325 10.9317 23.1117 10.8884 22.9457 10.8612C22.7807 10.8319 22.5825 10.7969 22.5072 10.7842C21.814 10.6592 21.7672 10.6522 20.5247 10.5147C19.7592 10.4277 18.7297 10.3544 18.479 10.3672C18.439 10.3672 18.2165 10.3769 17.9877 10.3897ZM15.0865 11.6199C15.7495 11.8349 16.394 12.1269 16.8355 12.4119C17.187 12.6387 17.6235 13.0009 17.7417 13.1629L17.7915 13.2304L17.6967 13.1932C17.6442 13.1707 17.5337 13.1232 17.4507 13.0829C17.0092 12.8779 16.9615 12.8612 16.9615 12.9062C16.9615 12.9179 17.064 13.0829 17.187 13.2674C17.313 13.4549 17.4125 13.6199 17.4125 13.6349C17.4125 13.6474 17.3657 13.6269 17.307 13.5869C17.0815 13.4324 16.552 13.2099 16.522 13.2549C16.5142 13.2674 16.677 13.4744 16.8862 13.7167C17.0912 13.9589 17.2622 14.1659 17.2622 14.1817C17.2622 14.2187 17.2222 14.2137 17.0317 14.1434C16.8355 14.0742 16.7857 14.0664 16.7857 14.1142C16.7857 14.1464 17.2095 14.7177 17.3775 14.9149C17.4252 14.9697 17.4632 15.0224 17.4632 15.0349C17.4632 15.0947 16.8755 14.7129 16.4595 14.3837C15.8645 13.9092 15.2895 13.2724 14.987 12.7462C14.7377 12.3162 14.6527 12.0849 14.6527 11.8299C14.6527 11.6807 14.6597 11.6504 14.7152 11.5974C14.7477 11.5634 14.7885 11.5349 14.8032 11.5349C14.818 11.5349 14.9437 11.5732 15.0865 11.6199ZM23.0092 12.5087C23.2495 12.5517 23.5785 12.6084 23.7367 12.6367C23.895 12.6642 24.0882 12.6962 24.1635 12.7089C24.2387 12.7237 24.346 12.7432 24.4017 12.7557C24.4567 12.7684 24.565 12.7909 24.6402 12.8084C24.8882 12.8634 24.9487 12.8759 25.355 12.9707C25.7915 13.0732 25.8872 13.0927 26.02 13.1199C26.1332 13.1424 26.2455 13.1854 26.2455 13.2049C26.2455 13.2129 26.1635 13.2607 26.063 13.3124C25.857 13.4149 25.814 13.4227 24.9662 13.4549C24.3892 13.4794 24.0805 13.4724 23.7992 13.4274C23.2317 13.3399 22.939 13.1807 22.7105 12.8359C22.6305 12.7187 22.5777 12.6834 22.394 12.6367C22.3265 12.6162 22.2232 12.5887 22.1685 12.5712C22.1127 12.5537 22.018 12.5262 21.9575 12.5087C21.7767 12.4619 21.8795 12.4344 22.2437 12.4344C22.4945 12.4344 22.6705 12.4512 23.0092 12.5087ZM26.0277 15.9962C26.0072 16.0011 25.9858 16.0011 25.9652 15.9962C25.9477 15.9882 25.9602 15.9834 25.9955 15.9834C26.0297 15.9834 26.0425 15.9884 26.028 15.9959L26.0277 15.9962ZM25.9195 16.0254C25.9195 16.0379 25.8902 16.0554 25.852 16.0634C25.774 16.0829 25.4682 16.1709 25.3677 16.2029C25.3325 16.2157 25.2192 16.2509 25.1167 16.2804C24.858 16.3554 24.231 16.5594 24.063 16.6249C23.7465 16.7449 23.0035 17.1387 22.899 17.2442C22.7427 17.3964 22.6947 17.5604 22.7182 17.8749C22.725 18.0077 22.7427 18.1749 22.7582 18.2469C22.7885 18.4044 22.7707 18.4472 22.7105 18.3692C22.65 18.2919 22.522 18.0127 22.4847 17.8749C22.4642 17.8134 22.442 17.7304 22.4292 17.6904C22.3842 17.5487 22.4017 17.3807 22.4722 17.2792C22.567 17.1337 22.9087 16.9022 23.31 16.7099C23.5005 16.6172 24.055 16.4274 24.565 16.2782C24.6675 16.2482 24.7807 16.2129 24.816 16.2032C25.1772 16.0809 25.9195 15.9637 25.9195 16.0254ZM17.983 16.1932C17.975 16.2002 17.9527 16.2032 17.935 16.1952C17.9145 16.1884 17.9225 16.1807 17.9497 16.1807C17.978 16.1777 17.9927 16.1857 17.983 16.1932Z" fill="#850000"/>
<path d="M12.7207 21.0204V22.7674H13.9707C14.9092 22.7674 15.2275 22.7599 15.25 22.7374C15.288 22.6999 15.296 19.2734 15.2577 19.2734C15.2452 19.2734 15.2277 19.2929 15.2197 19.3154C15.2097 19.3379 14.9365 19.7647 14.6102 20.2637C14.0937 21.0527 13.9502 21.2449 13.9502 21.1474C13.9502 21.1299 13.0947 19.7949 12.876 19.4724C12.8469 19.4306 12.8211 19.3865 12.7987 19.3407C12.7782 19.3027 12.7537 19.2732 12.7412 19.2732C12.7305 19.2732 12.7207 20.0594 12.7207 21.0204Z" fill="#850000"/>
</g>
<defs>
<clipPath id="clip0_344_4">
<rect width="32" height="32" fill="white" transform="translate(0.5 0.5625)"/>
</clipPath>
</defs>
</svg>
