<svg width="33" height="33" viewBox="0 0 33 33" fill="none" xmlns="http://www.w3.org/2000/svg">
<g clip-path="url(#clip0_212_230)">
<mask id="mask0_212_230" style="mask-type:luminance" maskUnits="userSpaceOnUse" x="0" y="0" width="33" height="33">
<path d="M16.5 32.5625C25.3366 32.5625 32.5 25.3991 32.5 16.5625C32.5 7.72594 25.3366 0.5625 16.5 0.5625C7.66344 0.5625 0.5 7.72594 0.5 16.5625C0.5 25.3991 7.66344 32.5625 16.5 32.5625Z" fill="white"/>
</mask>
<g mask="url(#mask0_212_230)">
<path d="M16.5 32.5625C25.3366 32.5625 32.5 25.3991 32.5 16.5625C32.5 7.72594 25.3366 0.5625 16.5 0.5625C7.66344 0.5625 0.5 7.72594 0.5 16.5625C0.5 25.3991 7.66344 32.5625 16.5 32.5625Z" fill="black"/>
<path d="M27.0789 28.5661L12.7915 10.1626H10.0996V22.9572H12.2531V12.8976L25.3884 29.8683C25.9801 29.4722 26.5449 29.0372 27.0789 28.5661Z" fill="url(#paint0_linear_212_230)"/>
<path d="M20.9453 10.1626H23.0787V22.9626H20.9453V10.1626Z" fill="url(#paint1_linear_212_230)"/>
</g>
</g>
<defs>
<linearGradient id="paint0_linear_212_230" x1="954.706" y1="1121.27" x2="1521.71" y2="1824.05" gradientUnits="userSpaceOnUse">
<stop stop-color="white"/>
<stop offset="1" stop-color="white" stop-opacity="0"/>
</linearGradient>
<linearGradient id="paint1_linear_212_230" x1="127.614" y1="10.1626" x2="124.005" y2="950.155" gradientUnits="userSpaceOnUse">
<stop stop-color="white"/>
<stop offset="1" stop-color="white" stop-opacity="0"/>
</linearGradient>
<clipPath id="clip0_212_230">
<rect width="32" height="32" fill="white" transform="translate(0.5 0.5625)"/>
</clipPath>
</defs>
</svg>
