<svg width="33" height="37" viewBox="0 0 33 37" fill="none" xmlns="http://www.w3.org/2000/svg">
<g clip-path="url(#clip0_212_253)">
<path d="M16.7598 36.1829C16.2629 36.1829 15.7991 36.0504 15.3685 35.8186L10.9626 33.2016C10.3001 32.8372 10.6314 32.7047 10.8301 32.6384C11.7245 32.3403 11.8901 32.2741 12.8176 31.7439C12.9171 31.6777 13.0496 31.7108 13.1489 31.7771L16.5279 33.7978C16.6604 33.8641 16.826 33.8641 16.9254 33.7978L30.1429 26.1457C30.2754 26.0794 30.3416 25.9469 30.3416 25.7813V10.5099C30.3416 10.3443 30.2754 10.2118 30.1429 10.1456L16.9254 2.52644C16.7929 2.46019 16.6273 2.46019 16.5279 2.52644L3.31039 10.1457C3.17789 10.2119 3.11164 10.3776 3.11164 10.5101V25.7813C3.11164 25.9138 3.17789 26.0794 3.31039 26.1457L6.92127 28.2326C8.87577 29.2263 10.1013 28.0669 10.1013 26.9076V11.8349C10.1013 11.6362 10.267 11.4374 10.4989 11.4374H12.1884C12.3871 11.4374 12.5859 11.6031 12.5859 11.8349V26.9074C12.5859 29.5244 11.1614 31.0482 8.67689 31.0482C7.91502 31.0482 7.31877 31.0482 5.62939 30.2201L2.15102 28.2326C1.28977 27.7356 0.759766 26.8081 0.759766 25.8143V10.5432C0.759766 9.54944 1.28977 8.62194 2.15102 8.12494L15.3685 0.472813C16.1966 0.0090625 17.3229 0.0090625 18.151 0.472813L31.3685 8.12494C32.2298 8.62181 32.7598 9.54931 32.7598 10.5432V25.8144C32.7598 26.8082 32.2298 27.7357 31.3685 28.2326L18.151 35.8849C17.7204 36.0837 17.2235 36.1831 16.7598 36.1831M20.8343 25.6819C15.0371 25.6819 13.8446 23.0319 13.8446 20.7793C13.8446 20.5806 14.0103 20.3818 14.2421 20.3818H15.9646C16.1634 20.3818 16.3291 20.5143 16.3291 20.7131C16.5941 22.4687 17.356 23.3301 20.8674 23.3301C23.65 23.3301 24.8426 22.7007 24.8426 21.2101C24.8426 20.3487 24.5114 19.7193 20.1718 19.2886C16.561 18.9242 14.3084 18.1292 14.3084 15.2473C14.3084 12.5639 16.5609 10.9739 20.3374 10.9739C24.5775 10.9739 26.6645 12.4314 26.9295 15.6116C26.9295 15.7109 26.8964 15.8103 26.8301 15.9097C26.7639 15.9759 26.6645 16.0422 26.5651 16.0422H24.8426C24.6769 16.0422 24.5114 15.9097 24.4781 15.7441C24.0806 13.9222 23.0538 13.3259 20.3374 13.3259C17.2899 13.3259 16.9254 14.3859 16.9254 15.1809C16.9254 16.1417 17.356 16.4397 21.4636 16.9697C25.5383 17.4997 27.4595 18.2617 27.4595 21.1106C27.4264 24.0257 25.0414 25.6819 20.8343 25.6819Z" fill="#539E43"/>
</g>
<defs>
<clipPath id="clip0_212_253">
<rect width="32" height="36.125" fill="white" transform="translate(0.759766 0.125)"/>
</clipPath>
</defs>
</svg>
