<svg width="33" height="34" viewBox="0 0 33 34" fill="none" xmlns="http://www.w3.org/2000/svg">
<g clip-path="url(#clip0_352_46)">
<path d="M2.51327 1.56711L21.0113 0.200985C23.2835 0.00600285 23.8673 0.137491 25.2959 1.17602L31.2007 5.33588C32.1748 6.05119 32.499 6.2463 32.499 7.02523V29.839C32.499 31.2687 31.9797 32.1144 30.1622 32.2438L8.68119 33.5441C7.3172 33.6088 6.66763 33.4138 5.95332 32.5034L1.6051 26.8493C0.825173 25.8085 0.501953 25.0294 0.501953 24.119V3.8404C0.501953 2.67151 1.02128 1.69647 2.51327 1.56711Z" fill="white"/>
<path d="M21.0113 0.200985L2.51327 1.56711C1.02128 1.69647 0.501953 2.67151 0.501953 3.8404V24.1191C0.501953 25.0296 0.825048 25.8085 1.6051 26.8493L5.95332 32.5034C6.66763 33.4138 7.3172 33.6088 8.68119 33.5441L30.1622 32.2438C31.9785 32.1144 32.499 31.2687 32.499 29.839V7.02523C32.499 6.28642 32.207 6.07357 31.3478 5.44287L31.1997 5.33588L25.2959 1.17602C23.8673 0.137491 23.2836 0.00600285 21.0113 0.200985ZM9.16702 6.65189C7.41306 6.77 7.01522 6.79675 6.01907 5.98657L3.48618 3.97189C3.2287 3.71116 3.35794 3.38569 4.0065 3.32107L21.7891 2.02182C23.2823 1.89145 24.0601 2.41178 24.6441 2.86649L27.6939 5.07628C27.8243 5.1419 28.1486 5.53087 27.7585 5.53087L9.39438 6.63626L9.16702 6.65189ZM7.12221 29.644V10.2768C7.12221 9.431 7.38181 9.04104 8.15962 8.9753L29.2518 7.74054C29.9672 7.67592 30.2904 8.1305 30.2904 8.9753V28.2131C30.2904 29.0589 30.1599 29.7742 28.9922 29.839L8.80818 31.009C7.64042 31.0736 7.12221 30.6848 7.12221 29.644ZM27.0466 11.3152C27.1759 11.9003 27.0466 12.4853 26.4615 12.5522L25.4888 12.7449V27.0441C24.6441 27.4987 23.8663 27.7584 23.2165 27.7584C22.1781 27.7584 21.9183 27.433 21.1405 26.459L14.7789 16.4501V26.1337L16.7912 26.5894C16.7912 26.5894 16.7912 27.7596 15.1677 27.7596L10.6914 28.0192C10.561 27.7584 10.6914 27.1087 11.1451 26.9795L12.3139 26.6552V13.8516L10.6915 13.7201C10.561 13.1352 10.8852 12.2904 11.7947 12.2246L16.5975 11.9015L23.2166 22.0397V13.0705L21.5295 12.8766C21.3991 12.16 21.9183 11.6397 22.5669 11.5762L27.0466 11.3152Z" fill="black"/>
</g>
<defs>
<clipPath id="clip0_352_46">
<rect width="32" height="33.4969" fill="white" transform="translate(0.5 0.125)"/>
</clipPath>
</defs>
</svg>
