<svg width="32" height="32" viewBox="0 0 32 32" fill="none" xmlns="http://www.w3.org/2000/svg">
<g clip-path="url(#clip0_344_32)">
<path d="M28.2793 6.51657C23.0421 -0.265425 13.2978 -1.51743 6.51559 3.72082C-0.265663 8.95907 -1.51641 18.7033 3.72184 25.4846C8.96109 32.2656 18.7061 33.5156 25.4863 28.2763C32.2648 23.0381 33.5158 13.2968 28.2793 6.51657Z" fill="#F37036"/>
<path d="M22.7695 6.04089C22.2353 6.0836 21.7289 6.29613 21.3242 6.64739C20.8507 7.05867 20.5484 7.63249 20.4772 8.25565C20.4059 8.87881 20.5708 9.50605 20.9392 10.0136C21.3074 10.5213 21.8524 10.8726 22.4668 10.9983C23.0812 11.1239 23.7203 11.0148 24.2582 10.6924H24.2587L24.2977 10.7314C24.4749 10.6299 24.6397 10.5082 24.789 10.3689C25.2494 9.88188 25.5027 9.23506 25.4955 8.56488C25.4882 7.8947 25.2209 7.25354 24.75 6.77664V6.77614L22.539 8.97339L22.5 8.93464L24.711 6.73639C24.455 6.48966 24.1496 6.30011 23.8149 6.1803C23.4802 6.06048 23.1239 6.01313 22.7695 6.04139V6.04089ZM19.8585 9.63764C18.7985 9.63589 17.0677 10.8374 12.8417 15.0634L12.8627 15.0849C12.8397 15.0769 12.8165 15.0761 12.8165 15.0761L11.2255 16.6531C11.1846 16.692 11.1576 16.7431 11.1485 16.7988C11.1393 16.8544 11.1486 16.9115 11.175 16.9614C11.2013 17.0113 11.2432 17.0512 11.2943 17.075C11.3454 17.0989 11.4028 17.1054 11.458 17.0936L14.1865 16.5116C14.1986 16.5004 14.2067 16.4855 14.2095 16.4691L14.27 16.5316L13.34 17.4541H13.295L7.77347 23.0191L9.54497 24.7251C9.59444 24.7699 9.65695 24.7977 9.72335 24.8044C9.78975 24.8111 9.85655 24.7964 9.91397 24.7624C9.97187 24.7287 10.0182 24.6783 10.047 24.6178C10.0758 24.5573 10.0856 24.4896 10.0752 24.4234L9.81647 23.2984C9.8002 23.2758 9.79144 23.2487 9.79144 23.2209C9.79144 23.1931 9.8002 23.166 9.81647 23.1434C12.235 21.9904 14.4841 20.5114 16.501 18.7476L15.3672 17.6134L15.3887 17.6099L14.7162 16.9376L14.7592 16.8941L14.8047 16.9406L14.7812 16.9634L16.5655 18.7866V18.7859C19.9855 15.5474 22.413 12.9441 21.7817 11.1921C21.753 10.9826 21.6556 10.7885 21.505 10.6401V10.6411C21.4666 10.6128 21.4262 10.5872 21.3842 10.5646C21.3635 10.5426 21.3452 10.5201 21.3232 10.4986L21.3067 10.5151C21.2603 10.4871 21.2116 10.4628 21.1612 10.4426L21.2335 10.3696C20.7845 9.96964 20.4135 9.63864 19.8585 9.63714V9.63764ZM7.73497 23.0524L6.44222 24.3454V24.3464C6.39584 24.3751 6.35978 24.4178 6.33925 24.4684C6.31871 24.5189 6.31476 24.5747 6.32797 24.6276C6.34073 24.6806 6.36984 24.7281 6.41118 24.7635C6.45252 24.7989 6.50397 24.8204 6.55822 24.8249L9.72622 25.0436L7.73497 23.0524Z" fill="white"/>
<path d="M22.9884 5.82739C22.2628 5.82657 21.5661 6.11124 21.0487 6.61989C20.6806 6.99668 20.4286 7.47132 20.3226 7.98729C20.2167 8.50327 20.2613 9.03881 20.4512 9.53014C19.2659 9.02264 17.6624 9.90764 12.6747 14.8944C12.6712 14.9021 12.6681 14.9099 12.6654 14.9179C12.6552 14.9224 12.6452 14.9276 12.6357 14.9334L11.0584 16.5244C10.9828 16.5986 10.9332 16.6952 10.9168 16.7999C10.9005 16.9045 10.9183 17.0117 10.9677 17.1054C11.0117 17.1796 11.0741 17.2412 11.1488 17.2843C11.2236 17.3274 11.3081 17.3505 11.3944 17.3514L11.4727 17.3006L13.5787 16.8514L12.5712 17.8681C12.5655 17.8816 12.5609 17.8954 12.5577 17.9096L7.62017 22.8594C7.60049 22.876 7.58419 22.8962 7.57217 22.9189L6.30067 24.1914C6.23737 24.2583 6.19412 24.3417 6.17583 24.432C6.15753 24.5222 6.16492 24.6159 6.19717 24.7021C6.23044 24.7878 6.28669 24.8627 6.35972 24.9184C6.43276 24.9742 6.51976 25.0088 6.61117 25.0184L9.76567 25.2384C9.81957 25.2197 9.86544 25.1831 9.89567 25.1346C9.92264 25.0969 9.93715 25.0517 9.93715 25.0053C9.93715 24.9589 9.92264 24.9136 9.89567 24.8759L9.88917 24.8696C9.95741 24.8342 10.0175 24.7848 10.0654 24.7246C10.116 24.6589 10.1514 24.5827 10.1689 24.5016C10.1865 24.4205 10.1858 24.3365 10.1669 24.2556L9.92092 23.2089C12.281 22.081 14.4924 20.6652 16.5044 18.9936C16.5238 19.005 16.5447 19.0136 16.5664 19.0194C16.6299 19.0146 16.6894 18.9874 16.7344 18.9424C20.1219 15.7349 22.1132 13.5369 22.1132 11.7919C22.1207 11.5498 22.0842 11.3084 22.0054 11.0794C22.3108 11.2058 22.6364 11.276 22.9667 11.2869L22.9629 11.2879C23.4179 11.2742 23.8626 11.1498 24.2587 10.9254L24.2597 10.9256C24.311 10.9409 24.3661 10.936 24.4139 10.9119C24.605 10.7993 24.7793 10.6603 24.9314 10.4989C25.1893 10.246 25.3941 9.94417 25.5339 9.61115C25.6738 9.27814 25.7459 8.92058 25.7459 8.55939C25.7459 8.19822 25.6739 7.84068 25.5341 7.50767C25.3943 7.17465 25.1895 6.87285 24.9317 6.61989C24.9224 6.61159 24.9126 6.60398 24.9022 6.59714C24.3875 6.10312 23.7016 5.82737 22.9882 5.82764L22.9884 5.82739ZM22.9667 6.27039C23.4719 6.27341 23.9623 6.44144 24.3632 6.74889L22.3462 8.77814C22.3393 8.78591 22.333 8.79409 22.3272 8.80264C22.2908 8.83943 22.2695 8.88847 22.2674 8.94014C22.2674 8.97137 22.2744 9.0022 22.288 9.03034C22.3015 9.05848 22.3212 9.08319 22.3457 9.10264H22.3462L23.8712 10.6276C23.4538 10.8098 22.9911 10.8616 22.5437 10.7763C22.0963 10.6909 21.6852 10.4724 21.3642 10.1494C20.7177 9.49939 20.5302 8.52339 20.8759 7.67664C21.2217 6.82914 22.0459 6.27539 22.9667 6.27039ZM24.7467 7.12839C25.0765 7.52741 25.2563 8.02923 25.2549 8.54689C25.254 9.15334 25.0123 9.7346 24.5829 10.1629C24.4968 10.2439 24.4051 10.3186 24.3084 10.3866L23.0777 9.17489L22.8369 8.93414L22.9032 8.86789L24.7464 7.12789L24.7467 7.12839ZM24.6552 8.17664C24.6099 8.16242 24.561 8.16517 24.5177 8.18439C24.4748 8.20658 24.4424 8.24488 24.4277 8.29089C24.4204 8.31386 24.4178 8.33803 24.4199 8.36202C24.4221 8.386 24.429 8.40933 24.4402 8.43064C24.4845 8.52407 24.5019 8.62798 24.4906 8.73076C24.4793 8.83354 24.4395 8.93114 24.3759 9.01264C24.3596 9.02837 24.3468 9.04738 24.3384 9.06841C24.33 9.08944 24.3262 9.11202 24.3272 9.13464C24.3282 9.18064 24.3447 9.22464 24.3759 9.25764C24.4092 9.27038 24.4461 9.27038 24.4794 9.25764C24.5095 9.26515 24.541 9.26429 24.5706 9.25517C24.6002 9.24605 24.6268 9.22901 24.6474 9.20589C24.7539 9.07549 24.8213 8.91763 24.8418 8.75055C24.8624 8.58347 24.8353 8.41398 24.7637 8.26164V8.26264C24.7392 8.22167 24.7006 8.19107 24.6552 8.17664ZM19.8359 9.85739C20.1376 9.86769 20.4278 9.9752 20.6634 10.1639C20.4098 10.2005 20.1747 10.318 19.9932 10.4989L14.2914 16.1751L13.1724 15.0561C16.1294 12.1131 17.9374 10.5759 19.0614 10.0721C19.293 9.92631 19.5623 9.85182 19.8359 9.85739ZM20.8272 10.5974C21.0186 10.5975 21.2022 10.6734 21.3379 10.8084C21.4099 10.8762 21.4668 10.9586 21.5046 11.05C21.5425 11.1414 21.5606 11.2398 21.5577 11.3386C21.5544 11.4372 21.5308 11.534 21.4885 11.623C21.4461 11.7121 21.3858 11.7914 21.3114 11.8561L15.2489 17.1326L14.5947 16.4784L20.3164 10.8084C20.4522 10.6735 20.6358 10.5975 20.8272 10.5974ZM21.5757 12.2719C21.1532 13.9474 18.9139 16.2176 16.5789 18.4236L15.6347 17.4804L21.5757 12.2719ZM12.8427 15.3866L12.9112 15.4541L13.7894 16.3324L11.3819 16.8474L12.8427 15.3866ZM14.2909 16.8466L14.2919 16.8476L14.5839 17.1464L14.5884 17.1674L14.6079 17.1704L14.6699 17.2339L14.8749 17.4439L13.5287 17.6089L14.2909 16.8466ZM15.2577 17.8656L16.1522 18.7596C14.1742 20.4044 12.0037 21.8026 9.68842 22.9236C9.61325 22.9594 9.55281 23.0202 9.51739 23.0955C9.48197 23.1709 9.47376 23.2562 9.49417 23.3369L9.75292 24.4619C9.76245 24.4751 9.76759 24.491 9.76759 24.5073C9.76759 24.5236 9.76245 24.5394 9.75292 24.5526C9.7387 24.5654 9.72027 24.5725 9.70117 24.5725C9.68206 24.5725 9.66364 24.5654 9.64942 24.5526L8.12392 23.0146L12.8259 18.2436L15.2577 17.8656ZM7.77442 23.3506L7.99167 23.5541L9.11467 24.6771L6.61067 24.5151L7.77442 23.3506Z" fill="#F37036"/>
</g>
<defs>
<clipPath id="clip0_344_32">
<rect width="32" height="32" fill="white"/>
</clipPath>
</defs>
</svg>
