<svg width="33" height="29" viewBox="0 0 33 29" fill="none" xmlns="http://www.w3.org/2000/svg">
<g clip-path="url(#clip0_212_228)">
<path d="M26.8104 9.54048C26.4698 9.42364 26.1264 9.31539 25.7804 9.21585C25.8385 8.97835 25.892 8.74373 25.9395 8.51323C26.7193 4.7281 26.2095 1.67873 24.4684 0.674728C22.799 -0.287772 20.0689 0.715853 17.3116 3.11548C17.0399 3.3524 16.7742 3.59614 16.5147 3.84648C16.3411 3.68001 16.1643 3.51677 15.9846 3.35685C13.0949 0.791103 10.1984 -0.290272 8.45913 0.716603C6.79125 1.6821 6.29737 4.54873 6.99937 8.13598C7.06922 8.49126 7.14808 8.84471 7.23588 9.19598C6.82588 9.31248 6.43025 9.43648 6.05162 9.56848C2.66362 10.7497 0.5 12.6009 0.5 14.521C0.5 16.5041 2.82275 18.4932 6.3515 19.6994C6.63758 19.7967 6.92605 19.887 7.21663 19.97C7.12225 20.3483 7.03847 20.7292 6.96537 21.1122C6.29612 24.6372 6.81875 27.4361 8.48212 28.3955C10.2001 29.3862 13.0836 28.368 15.8912 25.9136C16.1189 25.7141 16.3416 25.5089 16.559 25.2982C16.8399 25.5693 17.1284 25.8325 17.424 26.0875C20.1437 28.4277 22.8298 29.3727 24.4915 28.4107C26.2079 27.4171 26.7658 24.4104 26.0415 20.7522C25.9844 20.4656 25.9205 20.1805 25.8496 19.897C26.0521 19.837 26.2509 19.7752 26.4446 19.711C30.1131 18.4956 32.5 16.5306 32.5 14.521C32.5 12.5939 30.2665 10.7302 26.8104 9.54048ZM26.0147 18.4135C25.8398 18.4714 25.6602 18.5272 25.4772 18.5816C25.0722 17.2995 24.5257 15.9362 23.8569 14.5276C24.4951 13.1526 25.0206 11.8067 25.4142 10.533C25.7416 10.6277 26.0592 10.7276 26.3655 10.833C29.3267 11.8525 31.133 13.3596 31.133 14.521C31.133 15.758 29.1822 17.3639 26.0147 18.4135ZM24.7005 21.0177C25.0208 22.6352 25.0664 24.0977 24.8542 25.2411C24.6637 26.2685 24.2805 26.9534 23.8065 27.2277C22.7981 27.8115 20.6415 27.0527 18.3156 25.0512C18.0407 24.8141 17.7724 24.5695 17.511 24.3175C18.4128 23.3314 19.3139 22.185 20.1934 20.9117C21.7404 20.7745 23.2019 20.55 24.5273 20.2436C24.5911 20.5002 24.6489 20.7584 24.7005 21.0177ZM11.4095 27.1269C10.4242 27.4747 9.6395 27.4847 9.16512 27.2112C8.15575 26.6291 7.73612 24.3817 8.3085 21.3672C8.37654 21.011 8.45444 20.6567 8.54212 20.3049C9.85287 20.5949 11.3038 20.8034 12.8544 20.9291C13.7399 22.175 14.667 23.3201 15.6014 24.3229C15.4028 24.515 15.1995 24.7022 14.9917 24.8844C13.7501 25.9696 12.506 26.7396 11.4095 27.1269ZM6.79375 18.4059C5.23337 17.8725 3.94475 17.1794 3.0615 16.423C2.26775 15.7434 1.86713 15.0685 1.86713 14.521C1.86713 13.3557 3.60425 11.8695 6.50163 10.8594C6.85325 10.7369 7.22125 10.6212 7.60313 10.5127C8.00362 11.8152 8.52888 13.1771 9.16275 14.5542C8.52063 15.9517 7.98787 17.3354 7.5835 18.6532C7.31826 18.5773 7.05493 18.4948 6.79375 18.4059ZM8.341 7.87335C7.73962 4.79998 8.139 2.4816 9.14412 1.89973C10.2146 1.27998 12.5819 2.1636 15.077 4.3791C15.2397 4.5239 15.3998 4.67163 15.5571 4.82223C14.6274 5.8206 13.7087 6.95723 12.8311 8.19573C11.3261 8.33523 9.8855 8.55923 8.561 8.85935C8.4794 8.53263 8.40604 8.20377 8.341 7.87335ZM22.1444 11.282C21.8315 10.7416 21.5071 10.208 21.1712 9.6816C22.1922 9.81073 23.1705 9.9821 24.0891 10.1916C23.8134 11.0756 23.4696 11.9997 23.065 12.9472C22.7692 12.3861 22.4623 11.8309 22.1444 11.282ZM16.5154 5.79935C17.1459 6.48248 17.7774 7.2451 18.3985 8.0726C17.1385 8.0131 15.8764 8.01285 14.6164 8.07185C15.2381 7.25198 15.875 6.49035 16.5154 5.79935ZM10.8503 11.2912C10.5363 11.8357 10.2351 12.3874 9.94687 12.946C9.54887 12.0019 9.20825 11.0735 8.93013 10.177C9.84313 9.97273 10.8168 9.80573 11.8313 9.67898C11.4917 10.2086 11.1646 10.7462 10.8503 11.2912ZM11.8604 19.4602C10.8123 19.3432 9.824 19.1849 8.91125 18.9861C9.19375 18.0736 9.54187 17.1255 9.9485 16.1611C10.2379 16.7201 10.5403 17.2721 10.8556 17.8169C11.1799 18.3769 11.5156 18.9254 11.8604 19.4602ZM16.5531 23.339C15.9051 22.64 15.2589 21.8666 14.6278 21.0349C15.2405 21.0589 15.8651 21.0711 16.5 21.0711C17.1523 21.0711 17.797 21.0565 18.4316 21.0282C17.8085 21.875 17.1794 22.6495 16.5531 23.339ZM23.0779 16.1119C23.5056 17.0869 23.8661 18.03 24.1524 18.9269C23.2246 19.1386 22.2229 19.3091 21.1674 19.4357C21.5056 18.8995 21.8331 18.3567 22.1497 17.8075C22.4717 17.2492 22.7811 16.6839 23.0779 16.1119ZM20.9656 17.1245C20.4809 17.9665 19.9689 18.7926 19.4305 19.6014C18.4552 19.6704 17.4777 19.7047 16.5 19.7042C15.5041 19.7042 14.5355 19.6732 13.6027 19.6127C13.0503 18.8058 12.5285 17.9783 12.0386 17.132C11.551 16.2901 11.0957 15.43 10.6734 14.5536C11.0946 13.677 11.5487 12.8165 12.0346 11.974L12.0345 11.9741C12.5202 11.1314 13.0378 10.3074 13.5861 9.50398C14.5378 9.43198 15.5136 9.39448 16.4999 9.39448C17.4906 9.39448 18.4679 9.43235 19.4193 9.50485C19.962 10.3071 20.4763 11.1282 20.9611 11.9667C21.4487 12.8074 21.9088 13.6637 22.3406 14.5342C21.9132 15.4137 21.4546 16.2777 20.9656 17.1245ZM23.7856 1.85898C24.8571 2.47698 25.2739 4.9691 24.6006 8.23723C24.5576 8.44573 24.5094 8.6581 24.4569 8.87348C23.1291 8.56698 21.6875 8.3391 20.1781 8.19748C19.2989 6.94535 18.3878 5.80698 17.4731 4.82148C17.7128 4.59042 17.9582 4.36535 18.2091 4.14648C20.5716 2.0906 22.7796 1.27885 23.7856 1.85898ZM16.5 11.6635C18.0781 11.6635 19.3575 12.9429 19.3575 14.521C19.3575 16.0991 18.0781 17.3785 16.5 17.3785C14.9219 17.3785 13.6425 16.0991 13.6425 14.521C13.6425 12.9429 14.9219 11.6635 16.5 11.6635Z" fill="#00D8FF"/>
</g>
<defs>
<clipPath id="clip0_212_228">
<rect width="32" height="28.5" fill="white" transform="translate(0.5 0.3125)"/>
</clipPath>
</defs>
</svg>
