<svg width="32" height="32" viewBox="0 0 32 32" fill="none" xmlns="http://www.w3.org/2000/svg">
<path d="M27.8529 13.1825C27.758 12.1892 27.5157 11.2387 27.1476 10.3536C25.666 6.78698 22.15 4.27905 18.0474 4.27905C16.1334 4.27905 14.3473 4.8249 12.8359 5.76941C10.5004 7.2292 8.8211 9.64053 8.33918 12.4611H7.21588C3.3279 12.4611 0.175781 15.6132 0.175781 19.5015C0.175781 23.3899 3.3279 26.542 7.21624 26.542H24.7478C28.6362 26.542 31.7883 23.3899 31.7883 19.5015C31.7883 16.7281 30.1838 14.3301 27.8529 13.1825Z" fill="#69E3FF"/>
<path d="M15.0616 8.86733C15.4319 8.7143 15.4606 8.37271 15.4606 8.2716C15.4606 8.17048 15.4319 7.82889 15.0616 7.67586C14.8758 7.59935 14.731 7.45314 14.6531 7.26732C14.5766 7.08149 14.5766 6.87654 14.6531 6.68935L15.145 5.50335C15.3048 5.1194 15.7462 4.9363 16.1315 5.0948C16.5018 5.24784 16.7628 5.02648 16.8352 4.95543C16.9062 4.88438 17.1289 4.62204 16.9745 4.25176C16.898 4.06593 16.898 3.86098 16.9745 3.67379C17.0511 3.48796 17.1973 3.34176 17.3831 3.26524L18.5705 2.77335C18.9544 2.61486 19.3971 2.79795 19.557 3.1819C19.71 3.55081 20.0516 3.57951 20.1527 3.57951C20.2538 3.57951 20.5954 3.55081 20.7484 3.18053C20.825 2.9947 20.9712 2.8485 21.157 2.77199C21.3428 2.69547 21.5478 2.69547 21.7349 2.77199L22.9209 3.26388C23.1068 3.34039 23.253 3.48659 23.3295 3.67242C23.406 3.85824 23.406 4.0632 23.3295 4.25039C23.1765 4.62068 23.3978 4.88165 23.4689 4.95407C23.5399 5.02512 23.8023 5.24784 24.1725 5.09344C24.3584 5.01692 24.5633 5.01692 24.7505 5.09344C24.9363 5.16995 25.0825 5.31615 25.1591 5.50198L25.6509 6.68798C25.7275 6.87381 25.7275 7.07876 25.6509 7.26595C25.5744 7.45178 25.4282 7.59798 25.2424 7.6745C24.8735 7.82753 24.8434 8.16912 24.8434 8.27023C24.8434 8.37134 24.8721 8.71293 25.2424 8.86596C25.6263 9.02583 25.8094 9.46716 25.6509 9.85248L25.1591 11.0385C25.0825 11.2243 24.9363 11.3691 24.7505 11.447C24.5647 11.5235 24.3597 11.5235 24.1725 11.447C23.8036 11.294 23.5413 11.5153 23.4689 11.5864C23.3978 11.6574 23.1765 11.9198 23.3295 12.2901C23.4894 12.674 23.3063 13.1167 22.9209 13.2766L21.7349 13.7685C21.642 13.8067 21.5437 13.8259 21.4466 13.8259C21.3483 13.8259 21.2513 13.8067 21.1583 13.7685C20.9725 13.692 20.8263 13.5458 20.7498 13.3599C20.5968 12.9896 20.2552 12.961 20.1541 12.961C20.053 12.961 19.7114 12.9896 19.5583 13.3599C19.3985 13.7439 18.9571 13.927 18.5718 13.7685L17.3844 13.2766C17.0005 13.1167 16.8174 12.6754 16.9759 12.2901C17.1289 11.9198 16.9076 11.6588 16.8365 11.5864C16.7655 11.5153 16.5031 11.2926 16.1329 11.447C15.7489 11.6055 15.3062 11.4224 15.1463 11.0385L14.6545 9.85248C14.4946 9.46853 14.6777 9.02583 15.0616 8.86733ZM20.1527 10.3539C21.3018 10.3539 22.2364 9.41934 22.2364 8.27023C22.2364 7.12112 21.3018 6.18653 20.1527 6.18653C19.0036 6.18653 18.069 7.12112 18.069 8.27023C18.069 9.41934 19.0036 10.3539 20.1527 10.3539Z" fill="#4576A3"/>
<path d="M14.906 20.7273H12.978V19.3666H14.1582C14.4557 19.3666 14.697 19.1253 14.697 18.8278C14.697 18.5303 14.4557 18.289 14.1582 18.289H12.978V16.9282H14.906C15.2035 16.9282 15.4449 16.6869 15.4449 16.3894C15.4449 16.0919 15.2035 15.8506 14.906 15.8506H12.4392C12.1417 15.8506 11.9004 16.0919 11.9004 16.3894V21.2665C11.9004 21.564 12.1417 21.8053 12.4392 21.8053H14.906C15.2035 21.8053 15.4449 21.564 15.4449 21.2665C15.4449 20.969 15.2039 20.7273 14.906 20.7273Z" fill="#4576A3"/>
<path d="M10.5193 21.2661V19.76C10.5193 19.4042 10.3872 19.0821 10.1764 18.8274C10.3872 18.5727 10.5193 18.2506 10.5193 17.8948V17.3212C10.5193 16.5099 9.85926 15.8499 9.04787 15.8499H7.3689C7.07139 15.8499 6.83008 16.0912 6.83008 16.3887V18.827V21.2654C6.83008 21.5629 7.07139 21.8042 7.3689 21.8042C7.6664 21.8042 7.90771 21.5629 7.90771 21.2654V19.3659H9.04787C9.26494 19.3659 9.44162 19.5422 9.44162 19.7596V21.2658C9.44162 21.5633 9.68293 21.8046 9.98044 21.8046C10.2783 21.8049 10.5193 21.5636 10.5193 21.2661ZM7.90806 18.2886V16.9278H9.04822C9.26529 16.9278 9.44197 17.1042 9.44197 17.3216V17.8952C9.44197 18.1123 9.26529 18.2889 9.04822 18.2889L7.90806 18.2886Z" fill="#4576A3"/>
<path d="M24.5959 15.8503H21.5193C21.2218 15.8503 20.9805 16.0917 20.9805 16.3892C20.9805 16.6867 21.2218 16.928 21.5193 16.928H22.5186V21.2663C22.5186 21.5638 22.7599 21.8051 23.0574 21.8051C23.3549 21.8051 23.5962 21.5638 23.5962 21.2663V16.928H24.5955C24.893 16.928 25.1344 16.6867 25.1344 16.3892C25.1351 16.0913 24.8934 15.8503 24.5959 15.8503Z" fill="#4576A3"/>
<path d="M17.9947 16.928H18.4468C18.6927 16.928 18.8929 17.111 18.8929 17.3365C18.8929 17.634 19.1342 17.8753 19.4317 17.8753C19.7292 17.8753 19.9705 17.634 19.9705 17.3365C19.9705 16.517 19.2866 15.8503 18.4464 15.8503H17.9944C17.125 15.8503 16.418 16.5398 16.418 17.3871V17.83C16.418 18.6772 17.125 19.3667 17.9944 19.3667H18.3945C18.6695 19.3667 18.8929 19.5725 18.8929 19.8254V20.2684C18.8929 20.5213 18.6695 20.7271 18.3945 20.7271H17.9424C17.6962 20.7271 17.496 20.5437 17.496 20.3182C17.496 20.0207 17.2546 19.7794 16.9571 19.7794C16.6596 19.7794 16.4183 20.0207 16.4183 20.3182C16.4183 21.1377 17.1022 21.8047 17.9427 21.8047H18.3948C19.2638 21.8047 19.9709 21.1152 19.9709 20.268V19.8251C19.9709 18.9779 19.2638 18.2884 18.3948 18.2884H17.9947C17.7197 18.2884 17.496 18.0825 17.496 17.8296V17.3867C17.496 17.1338 17.7197 16.928 17.9947 16.928Z" fill="#4576A3"/>
<path d="M12.3212 23.4707H11.3971C10.52 23.4707 9.80664 24.1841 9.80664 25.0612V28.8863C9.80664 29.1838 10.0479 29.4251 10.3455 29.4251C10.643 29.4251 10.8843 29.1838 10.8843 28.8863V26.9867H12.8337V28.8863C12.8337 29.1838 13.075 29.4251 13.3725 29.4251C13.67 29.4251 13.9113 29.1838 13.9113 28.8863V25.0612C13.9117 24.1841 13.1983 23.4707 12.3212 23.4707ZM10.8846 25.9091V25.0612C10.8846 24.7784 11.1147 24.5483 11.3975 24.5483H12.3216C12.6043 24.5483 12.8344 24.7784 12.8344 25.0612V25.9091H10.8846Z" fill="#4576A3"/>
<path d="M21.0076 23.4707C20.7101 23.4707 20.4688 23.712 20.4688 24.0095V28.8866C20.4688 29.1841 20.7101 29.4254 21.0076 29.4254C21.3051 29.4254 21.5464 29.1841 21.5464 28.8866V24.0095C21.5464 23.712 21.3051 23.4707 21.0076 23.4707Z" fill="#4576A3"/>
<path d="M17.7402 23.4707H15.9548C15.6573 23.4707 15.416 23.712 15.416 24.0095V26.7451V28.8863C15.416 29.1838 15.6573 29.4251 15.9548 29.4251C16.2523 29.4251 16.494 29.1838 16.494 28.8863V27.2839H17.7406C18.5615 27.2839 19.2295 26.6158 19.2295 25.7946V24.96C19.2288 24.1384 18.5611 23.4707 17.7402 23.4707ZM18.1512 25.7949C18.1512 26.0218 17.9668 26.2066 17.7399 26.2066H16.4929V24.5487H17.7399C17.9664 24.5487 18.1512 24.7331 18.1512 24.9604V25.7949Z" fill="#4576A3"/>
</svg>
