<svg width="33" height="25" viewBox="0 0 33 25" fill="none" xmlns="http://www.w3.org/2000/svg">
<g clip-path="url(#clip0_212_247)">
<path d="M28.0351 13.9391C26.9218 13.9449 25.9542 14.213 25.1441 14.6094C24.8467 14.0206 24.5494 13.4961 24.4971 13.1114C24.4387 12.6626 24.3688 12.3886 24.4387 11.8524C24.5087 11.3161 24.8234 10.5525 24.8176 10.4943C24.8118 10.436 24.7476 10.162 24.1064 10.1563C23.4653 10.1504 22.9116 10.2786 22.8474 10.4476C22.7833 10.6166 22.6609 11.0014 22.5793 11.3976C22.4686 11.9806 21.2971 14.0614 20.6268 15.1514C20.4111 14.726 20.2246 14.3529 20.1837 14.0556C20.1254 13.6069 20.0554 13.3329 20.1254 12.7966C20.1954 12.2604 20.5102 11.4969 20.5043 11.4385C20.4984 11.3803 20.4343 11.1063 19.7932 11.1005C19.1519 11.0946 18.5982 11.2229 18.5342 11.3919C18.4701 11.561 18.4001 11.9573 18.2661 12.342C18.1319 12.7268 16.5757 16.2008 16.1677 17.0983C16.0028 17.4615 15.8298 17.8211 15.6489 18.1766C15.6489 18.1766 15.6431 18.1941 15.6256 18.2233C15.5687 18.3347 15.5105 18.4455 15.4508 18.5555V18.5613C15.3633 18.7188 15.2701 18.8644 15.2234 18.8644C15.1884 18.8644 15.1243 18.4448 15.2351 17.8735C15.4682 16.667 16.0219 14.7901 16.0162 14.726C16.0162 14.691 16.1211 14.3646 15.6548 14.1955C15.2001 14.0265 15.0369 14.3063 14.9961 14.3063C14.9553 14.3063 14.9261 14.4054 14.9261 14.4054C14.9261 14.4054 15.4333 12.2954 13.9586 12.2954C13.0377 12.2954 11.7669 13.3038 11.1374 14.213C10.4218 14.6024 9.70683 14.993 8.99244 15.3846C8.64869 15.577 8.29306 15.7694 7.96081 15.95C7.93744 15.9268 7.91419 15.8975 7.89081 15.8743C6.10718 13.9683 2.80818 12.6218 2.94806 10.063C3.00056 9.13038 3.32106 6.68225 9.28394 3.70963C14.1917 1.29063 18.0971 1.96088 18.7732 3.44725C19.7407 5.569 16.6807 9.50925 11.6096 10.0804C9.67443 10.2961 8.66018 9.55 8.40381 9.27025C8.13568 8.97875 8.09481 8.96125 7.99569 9.01963C7.83256 9.10713 7.93744 9.36938 7.99569 9.52088C8.14731 9.91713 8.77094 10.6166 9.82594 10.9606C10.7586 11.2636 13.0259 11.4328 15.7713 10.3719C18.8431 9.18275 21.2446 5.87788 20.5393 3.10925C19.8339 0.299753 15.1709 -0.626997 10.7586 0.940879C8.13568 1.87363 5.29118 3.34238 3.24531 5.25425C0.814685 7.52738 0.429935 9.50338 0.58731 10.3311C1.15281 13.2688 5.20381 15.1806 6.82419 16.597C6.74256 16.6436 6.66669 16.6845 6.60268 16.7195C5.79244 17.1216 2.70318 18.7361 1.93381 20.444C1.05956 22.3791 2.07381 23.7665 2.74406 23.9529C4.82493 24.53 6.96406 23.4925 8.11231 21.7788C9.26056 20.0651 9.12069 17.8385 8.59031 16.8185C8.58444 16.8069 8.57869 16.7951 8.56694 16.7835C8.77681 16.6611 8.99244 16.5329 9.20231 16.4105C9.58804 16.1825 9.97868 15.9628 10.3739 15.7518C10.1757 16.2939 10.0299 16.9409 9.96006 17.8735C9.87256 18.9694 10.3213 20.3915 10.9101 20.951C11.1724 21.196 11.4813 21.2018 11.6796 21.2018C12.3673 21.2018 12.6763 20.6305 13.0202 19.9544C13.4398 19.1268 13.8187 18.165 13.8187 18.165C13.8187 18.165 13.3466 20.7646 14.6289 20.7646C15.0952 20.7646 15.5673 20.1584 15.7772 19.8495V19.8553C15.7772 19.8553 15.7888 19.8378 15.8122 19.797C15.8588 19.7213 15.8879 19.6745 15.8879 19.6745V19.663C16.0744 19.3365 16.4942 18.5963 17.1178 17.3664C17.9222 15.781 18.6974 13.7993 18.6974 13.7993C18.6974 13.7993 18.7674 14.283 19.0063 15.0874C19.1463 15.5595 19.4376 16.0783 19.6708 16.5795C19.4843 16.8419 19.3677 16.9875 19.3677 16.9875L19.3736 16.9934C19.2219 17.1915 19.0588 17.4071 18.8781 17.6171C18.2427 18.3748 17.4851 19.2434 17.3801 19.4939C17.2576 19.7911 17.2868 20.0069 17.5201 20.1818C17.6891 20.31 17.9921 20.3274 18.3011 20.31C18.8723 20.2691 19.2744 20.1293 19.4726 20.0419C19.7816 19.9311 20.1429 19.762 20.4809 19.5114C21.1047 19.0509 21.4834 18.3923 21.4486 17.5239C21.4311 17.0459 21.2737 16.5679 21.0813 16.119C21.1397 16.0375 21.1921 15.9559 21.2504 15.8743C22.2354 14.4345 22.9991 12.8549 22.9991 12.8549C22.9991 12.8549 23.0691 13.3386 23.3079 14.1431C23.4246 14.5511 23.6636 14.9941 23.8733 15.4254C22.9466 16.1774 22.3753 17.0516 22.1713 17.6229C21.8042 18.6838 22.0897 19.1616 22.6318 19.2724C22.8766 19.3249 23.2263 19.2083 23.4828 19.0975C23.8092 18.9926 24.1939 18.812 24.5612 18.5438C25.1849 18.0834 25.7852 17.4421 25.7502 16.5738C25.7327 16.1774 25.6278 15.7868 25.4821 15.4079C26.2689 15.0816 27.2832 14.9009 28.5771 15.0524C31.3517 15.3788 31.8996 17.1099 31.7946 17.8386C31.6897 18.5671 31.1068 18.9635 30.9146 19.0859C30.7221 19.2084 30.6581 19.2491 30.6756 19.3365C30.6988 19.4648 30.7921 19.459 30.9553 19.4356C31.1827 19.3949 32.4126 18.8469 32.4649 17.5063C32.5524 15.7926 30.9203 13.9216 28.0351 13.9391ZM6.63181 21.1551C5.71081 22.1576 4.42856 22.5365 3.87481 22.216C3.28031 21.872 3.51344 20.3915 4.64419 19.3308C5.33193 18.6838 6.21794 18.0833 6.80668 17.7161C6.94068 17.6345 7.13894 17.518 7.37793 17.3723C7.41868 17.3489 7.44206 17.3373 7.44206 17.3373L7.58193 17.2498C7.99569 18.7653 7.59944 20.1001 6.63181 21.1551ZM13.3349 16.597C13.0143 17.3781 12.3441 19.3774 11.9361 19.2666C11.5863 19.1734 11.3706 17.6579 11.8661 16.1599C12.1167 15.4079 12.6471 14.5103 12.9561 14.1606C13.4573 13.601 14.0111 13.4144 14.1451 13.6419C14.3142 13.9391 13.5331 16.1074 13.3349 16.597ZM18.8664 19.2433C18.7323 19.3133 18.6042 19.3599 18.5458 19.3249C18.5051 19.3015 18.6042 19.2083 18.6042 19.2083C18.6042 19.2083 19.2978 18.4623 19.5717 18.1241C19.7292 17.926 19.9156 17.6929 20.1138 17.4305V17.5063C20.1138 18.3981 19.2511 18.9985 18.8663 19.2433M23.1329 18.2699C23.0338 18.1999 23.0513 17.9668 23.3836 17.2381C23.5118 16.9525 23.8148 16.4746 24.3337 16.0141C24.3919 16.2006 24.4328 16.3814 24.4269 16.5504C24.4211 17.6754 23.6168 18.095 23.1329 18.2699Z" fill="#CD6799"/>
</g>
<defs>
<clipPath id="clip0_212_247">
<rect width="32" height="24" fill="white" transform="translate(0.5 0.125)"/>
</clipPath>
</defs>
</svg>
