<svg width="33" height="33" viewBox="0 0 33 33" fill="none" xmlns="http://www.w3.org/2000/svg">
<g clip-path="url(#clip0_212_238)">
<path d="M25 0.125H8C3.85786 0.125 0.5 3.48286 0.5 7.625V24.625C0.5 28.7671 3.85786 32.125 8 32.125H25C29.1421 32.125 32.5 28.7671 32.5 24.625V7.625C32.5 3.48286 29.1421 0.125 25 0.125Z" fill="url(#paint0_linear_212_238)"/>
<path d="M1.93505 16.26L8.22305 18.808V20.5916L0.779297 17.1427V16.0962L1.93505 16.26ZM8.22305 14.1671L1.94417 16.7514L0.779422 16.8789V15.8232L8.22292 12.3835L8.22305 14.1671ZM30.6705 16.624L24.2005 14.1034V12.3652L31.9718 15.805V16.8697L30.6705 16.624ZM24.2005 18.8444L30.6888 16.2691L31.9718 16.078V17.1336L24.2005 20.5825V18.8444Z" fill="white"/>
<path fill-rule="evenodd" clip-rule="evenodd" d="M22.5098 7.76236C22.4738 8.33311 22.2167 8.92911 22.2883 9.48399C22.7374 10.2782 23.7259 10.4049 24.5414 10.4594C25.1064 10.5604 25.0993 10.1862 25.0614 9.76599L25.0683 7.75049C24.2154 7.75361 23.3623 7.74211 22.5098 7.76236ZM15.7847 9.35861C14.3962 9.59436 12.9887 10.2579 11.8336 11.0566C10.9038 11.7802 12.6317 12.4815 13.2586 12.5987C14.5198 12.6141 15.6384 11.7634 16.4669 10.8804C16.7374 10.5091 17.0753 9.94074 16.7354 9.51036C16.4759 9.28536 16.0986 9.33986 15.7847 9.35861ZM18.7393 11.3781C17.5977 11.5956 16.5114 12.0661 15.5503 12.7212C14.8457 12.9425 14.2649 13.7161 15.1381 14.1037C16.0549 14.8344 17.1176 14.6554 17.9619 14.1621C18.7352 13.7025 19.5704 13.1354 19.9282 12.2701C20.2661 11.3222 19.3943 11.2871 18.7393 11.3781ZM21.9779 15.051C21.7653 15.939 20.8711 16.3427 20.3953 17.0464C20.0063 17.5596 20.1864 18.1642 20.6293 18.5682C20.8449 19.0154 21.2229 19.2652 21.6283 18.8769C22.6723 18.1671 22.9611 16.7846 22.9177 15.5867C22.9948 15.092 22.4272 15.5392 21.9779 15.051ZM18.0051 16.7189C16.6187 16.9561 15.2321 17.6316 14.0764 18.4291C13.1793 19.1517 14.8689 19.8265 15.5009 19.9335C16.7856 19.9354 17.9314 19.1075 18.7437 18.1672C19.0262 17.7939 19.3686 17.0687 18.8092 16.7719C18.5591 16.6659 18.2687 16.697 18.0051 16.7189Z" fill="#B956A6"/>
<path fill-rule="evenodd" clip-rule="evenodd" d="M11.8334 11.0565C10.7671 11.4831 9.73863 12.0011 8.72288 12.5436C8.53413 13.2455 8.68551 14.1146 8.63663 14.8843C8.63288 18.0488 8.63463 21.2134 8.63413 24.3779H10.9866C11.4616 23.9306 12.0566 23.6033 12.5726 23.1971C14.5594 21.7723 16.5455 20.3419 18.5296 18.921C18.6756 18.9866 18.5821 18.0621 18.2619 18.7043C17.503 19.4184 16.4958 20.0058 15.4296 19.9484C14.8246 19.7494 13.8494 19.4118 13.8433 18.6704C14.2691 18.169 13.0575 18.9329 12.726 19.0423C11.6483 19.5598 10.596 20.1376 9.51601 20.6455C9.77551 20.3668 10.261 20.1069 10.6053 19.8304C13.0644 18.0651 15.5229 16.293 17.9879 14.5291C18.462 14.1963 18.92 13.8331 19.4088 13.522C19.4534 13.6944 19.5371 12.6979 19.1736 13.3114C18.4326 14.0459 17.4331 14.5926 16.379 14.6001C15.7861 14.4201 14.5234 13.9898 14.8045 13.2243C14.9416 12.9556 13.531 13.7969 14.1543 13.3225C14.8176 12.8378 15.4863 12.3616 16.1548 11.8819C16.4924 11.8565 16.4205 10.6024 15.9618 11.4114C15.1911 12.0885 14.1786 12.708 13.1173 12.5611C12.521 12.3895 11.8056 12.0571 11.5889 11.4336C11.5171 11.2839 11.9904 11.0505 11.8334 11.0565ZM16.2508 11.8306C16.1916 11.9998 16.3579 11.7689 16.2508 11.8306V11.8306Z" fill="#FCCC44"/>
<path fill-rule="evenodd" clip-rule="evenodd" d="M22.9881 10.2187C22.6553 11.8082 22.2914 13.4718 21.9785 15.0508C22.8775 16.1838 22.9646 14.3351 23.1219 13.8123C23.376 12.7197 23.677 11.8947 23.7089 10.7635C23.7764 10.3773 23.3226 10.1436 22.9881 10.2187ZM24.0195 11.4651C23.9914 11.628 24.0605 11.4957 24.0195 11.4651V11.4651ZM22.9708 15.0293C23.014 14.9361 23.014 15.1225 22.9708 15.0293V15.0293Z" fill="#62777F"/>
<path fill-rule="evenodd" clip-rule="evenodd" d="M23.5775 10.3988C23.858 11.9741 22.9289 13.8878 22.625 15.3731C23.315 14.8653 23.8481 12.5616 23.9844 11.6598C24.0195 11.5567 24.0627 11.2972 24.0721 11.2878C24.1155 11.069 24.5196 10.6981 24.5417 10.4595C24.777 10.2935 23.3855 10.2668 23.5775 10.3988ZM23.0054 15.0295C22.962 14.9362 22.962 15.1226 23.0054 15.0295V15.0295Z" fill="#4E5E67"/>
<path fill-rule="evenodd" clip-rule="evenodd" d="M11.8562 11.083C11.4672 11.4725 11.6132 11.3773 11.9027 11.0535L11.8562 11.083ZM16.0637 11.2758C15.6131 11.953 13.9881 12.5192 13.7835 12.5631C14.761 12.38 15.6721 11.7718 16.3132 11.0596C16.2114 11.105 16.1509 11.2116 16.0637 11.2758ZM11.589 11.4957C11.8319 12.0797 12.715 12.4677 13.1441 12.5582C12.5582 12.3695 11.8686 12.0347 11.589 11.4957ZM16.2152 11.8335C16.0926 11.9782 15.6559 12.1947 15.4256 12.4072C14.9317 12.7715 14.4209 13.11 13.9326 13.4833C14.2435 13.47 15.1545 12.7895 14.6875 13.48C15.0832 14.1611 15.9449 14.6347 16.7305 14.5915C17.768 14.4286 18.7247 13.855 19.4125 13.0572C18.5776 13.8833 17.4739 14.6608 16.2525 14.5537C15.6614 14.4172 14.0461 13.5828 15.1266 12.998C15.5076 12.6846 16.1645 12.5205 16.2389 11.9697C16.2232 11.901 16.3514 11.8338 16.2152 11.8335ZM13.2579 12.5988C13.651 12.5476 13.651 12.6502 13.2579 12.5988V12.5988ZM19.3832 13.5395C17.8234 14.6262 16.2861 15.7555 14.7397 16.8617C12.9872 18.116 11.2422 19.3748 9.49023 20.6281C10.149 20.406 10.809 19.9722 11.4634 19.6726C12.3646 19.1958 13.3149 18.8192 14.1581 18.2401C15.8254 17.2586 17.5886 16.3235 18.871 14.8218C19.1509 14.4936 19.4315 13.9652 19.444 13.6098C19.4036 13.6212 19.4342 13.4677 19.3832 13.5395ZM14.0757 18.4291C13.7951 18.7462 13.6811 18.9728 13.9724 18.5696C13.9672 18.6163 14.2087 18.3192 14.0757 18.4291ZM18.3452 18.5808C17.606 19.3603 16.5126 19.9226 15.4867 19.9605C16.6727 19.9691 17.7427 19.2651 18.5462 18.4346C18.4935 18.3708 18.3866 18.5831 18.3452 18.5808ZM18.5711 18.8258C16.0875 20.6338 13.5181 22.5092 11.0261 24.3107C11.4186 24.4338 12.2735 24.4916 12.6636 23.989C13.4936 23.4162 14.4267 22.9951 15.2595 22.4146C16.4654 21.6321 17.7565 20.7768 18.4414 19.4617C18.474 19.2853 18.7164 18.9681 18.5711 18.8258ZM13.8445 18.9406C13.9597 19.4271 15.4005 19.9855 15.2442 19.8786C14.713 19.6923 14.186 19.4021 13.8445 18.9406Z" fill="#DC9624"/>
</g>
<defs>
<linearGradient id="paint0_linear_212_238" x1="0.5" y1="32.125" x2="32.5" y2="0.125" gradientUnits="userSpaceOnUse">
<stop stop-color="#DB7093"/>
<stop offset="1" stop-color="#F3B661"/>
</linearGradient>
<clipPath id="clip0_212_238">
<rect width="32" height="32" fill="white" transform="translate(0.5 0.125)"/>
</clipPath>
</defs>
</svg>
