<svg width="33" height="20" viewBox="0 0 33 20" fill="none" xmlns="http://www.w3.org/2000/svg">
<g clip-path="url(#clip0_212_249)">
<path d="M16.5 0.5C12.2334 0.5 9.56662 2.63338 8.5 6.9C10.1 4.76663 11.9666 3.96662 14.1 4.5C15.3171 4.80425 16.1871 5.68738 17.1501 6.66475C18.7189 8.25712 20.5344 10.1 24.5 10.1C28.7666 10.1 31.4334 7.96663 32.5 3.7C30.9 5.83337 29.0334 6.63338 26.9 6.1C25.6829 5.79575 24.8129 4.91262 23.8499 3.93525C22.2811 2.34288 20.4656 0.5 16.5 0.5ZM8.5 10.1C4.23338 10.1 1.56662 12.2334 0.5 16.5C2.1 14.3666 3.96662 13.5666 6.1 14.1C7.31712 14.4043 8.18712 15.2874 9.15012 16.2647C10.7189 17.8571 12.5344 19.7 16.5 19.7C20.7666 19.7 23.4334 17.5666 24.5 13.3C22.9 15.4334 21.0334 16.2334 18.9 15.7C17.6829 15.3958 16.8129 14.5126 15.8499 13.5352C14.2811 11.9429 12.4656 10.1 8.5 10.1Z" fill="url(#paint0_linear_212_249)"/>
</g>
<defs>
<linearGradient id="paint0_linear_212_249" x1="-88.396" y1="614.9" x2="2675.33" y2="2208.41" gradientUnits="userSpaceOnUse">
<stop stop-color="#2298BD"/>
<stop offset="1" stop-color="#0ED7B5"/>
</linearGradient>
<clipPath id="clip0_212_249">
<rect width="32" height="19.25" fill="white" transform="translate(0.5 0.5)"/>
</clipPath>
</defs>
</svg>
