<svg width="33" height="33" viewBox="0 0 33 33" fill="none" xmlns="http://www.w3.org/2000/svg">
<g clip-path="url(#clip0_352_49)">
<path d="M29.375 0.125H3.625C1.89911 0.125 0.5 1.52411 0.5 3.25V29C0.5 30.7259 1.89911 32.125 3.625 32.125H29.375C31.1009 32.125 32.5 30.7259 32.5 29V3.25C32.5 1.52411 31.1009 0.125 29.375 0.125Z" fill="url(#paint0_linear_352_49)"/>
<path d="M26.8401 4.28491H20.0801C19.2517 4.28491 18.5801 4.95648 18.5801 5.78491V16.7849C18.5801 17.6133 19.2517 18.2849 20.0801 18.2849H26.8401C27.6685 18.2849 28.3401 17.6133 28.3401 16.7849V5.78491C28.3401 4.95648 27.6685 4.28491 26.8401 4.28491Z" fill="white"/>
<path d="M12.9202 4.28491H6.16016C5.33173 4.28491 4.66016 4.95648 4.66016 5.78491V24.7849C4.66016 25.6133 5.33173 26.2849 6.16016 26.2849H12.9202C13.7486 26.2849 14.4202 25.6133 14.4202 24.7849V5.78491C14.4202 4.95648 13.7486 4.28491 12.9202 4.28491Z" fill="white"/>
</g>
<defs>
<linearGradient id="paint0_linear_352_49" x1="1600.5" y1="0.125" x2="1600.5" y2="3200.13" gradientUnits="userSpaceOnUse">
<stop stop-color="#0091E6"/>
<stop offset="1" stop-color="#0079BF"/>
</linearGradient>
<clipPath id="clip0_352_49">
<rect width="32" height="32" fill="white" transform="translate(0.5 0.125)"/>
</clipPath>
</defs>
</svg>
