<svg width="33" height="33" viewBox="0 0 33 33" fill="none" xmlns="http://www.w3.org/2000/svg">
<g clip-path="url(#clip0_212_225)">
<path d="M3 0.5625H30C31.3808 0.5625 32.5 1.68175 32.5 3.0625V30.0625C32.5 31.4433 31.3808 32.5625 30 32.5625H3C1.61925 32.5625 0.5 31.4433 0.5 30.0625V3.0625C0.5 1.68175 1.61925 0.5625 3 0.5625Z" fill="#3178C6"/>
<path d="M19.3148 25.6219V29.0744C19.8763 29.3621 20.5404 29.5779 21.307 29.7218C22.0736 29.8656 22.8816 29.9375 23.7311 29.9375C24.5589 29.9375 25.3454 29.8584 26.0904 29.7001C26.8354 29.5419 27.4888 29.2811 28.0501 28.918C28.6116 28.5547 29.0561 28.08 29.3838 27.4937C29.7113 26.9076 29.875 26.183 29.875 25.3199C29.875 24.6941 29.7814 24.1456 29.5942 23.6745C29.4092 23.2066 29.134 22.7795 28.7844 22.4176C28.4317 22.0508 28.0088 21.7217 27.5158 21.4304C27.0226 21.1391 26.4665 20.864 25.8474 20.6051C25.3939 20.418 24.9873 20.2365 24.6273 20.0602C24.2674 19.884 23.9614 19.7042 23.7095 19.5208C23.4575 19.3374 23.2631 19.1431 23.1264 18.9381C22.9896 18.7331 22.9212 18.5013 22.9212 18.2423C22.9212 18.0049 22.9824 17.791 23.1047 17.6004C23.2271 17.4097 23.4 17.2461 23.6231 17.1095C23.8463 16.9728 24.1198 16.8667 24.4438 16.7911C24.7676 16.7156 25.1276 16.6779 25.5235 16.6779C25.8115 16.6779 26.1156 16.6995 26.4359 16.7426C26.7563 16.7857 27.0784 16.8522 27.4024 16.9422C27.7253 17.0318 28.0411 17.1454 28.3471 17.2821C28.6438 17.4136 28.9276 17.5725 29.1947 17.7568V14.5309C28.6693 14.3295 28.0951 14.1803 27.4725 14.0831C26.8499 13.986 26.1354 13.9375 25.3291 13.9375C24.5085 13.9375 23.7311 14.0256 22.9969 14.2019C22.2626 14.378 21.6165 14.6531 21.0586 15.0271C20.5007 15.4013 20.0599 15.8777 19.7359 16.4567C19.412 17.0357 19.25 17.728 19.25 18.5336C19.25 19.5621 19.5469 20.4396 20.1409 21.1661C20.7347 21.8925 21.6362 22.5075 22.8456 23.011C23.2921 23.1928 23.7349 23.3835 24.1737 23.5829C24.5841 23.7699 24.9386 23.964 25.2374 24.1654C25.5361 24.3667 25.7719 24.5861 25.9446 24.8235C26.1174 25.0609 26.2038 25.3306 26.2038 25.6327C26.2052 25.8502 26.1493 26.0642 26.0417 26.2531C25.9339 26.4436 25.77 26.6091 25.5505 26.7494C25.331 26.8896 25.0574 26.9992 24.7299 27.0784C24.4024 27.1575 24.019 27.1971 23.5799 27.1971C22.8313 27.1971 22.0899 27.0659 21.3556 26.8032C20.6213 26.5407 19.941 26.147 19.3148 25.6219ZM13.5603 17.0303H18V14.1875H5.625V17.0303H10.0431V29.6875H13.5603V17.0303Z" fill="white"/>
</g>
<defs>
<clipPath id="clip0_212_225">
<rect width="32" height="32" fill="white" transform="translate(0.5 0.5625)"/>
</clipPath>
</defs>
</svg>
